<svg width="4" height="15" viewBox="0 0 4 15" fill="none" xmlns="http://www.w3.org/2000/svg">
<path d="M1.8125 8.3125C2.26123 8.3125 2.625 7.94873 2.625 7.5C2.625 7.05127 2.26123 6.6875 1.8125 6.6875C1.36377 6.6875 1 7.05127 1 7.5C1 7.94873 1.36377 8.3125 1.8125 8.3125Z" fill="#C5CCD3" stroke="#C5CCD3" stroke-width="2" stroke-linecap="round" stroke-linejoin="round"/>
<path d="M1.8125 2.625C2.26123 2.625 2.625 2.26123 2.625 1.8125C2.625 1.36377 2.26123 1 1.8125 1C1.36377 1 1 1.36377 1 1.8125C1 2.26123 1.36377 2.625 1.8125 2.625Z" fill="#C5CCD3" stroke="#C5CCD3" stroke-width="2" stroke-linecap="round" stroke-linejoin="round"/>
<path d="M1.8125 14C2.26123 14 2.625 13.6362 2.625 13.1875C2.625 12.7388 2.26123 12.375 1.8125 12.375C1.36377 12.375 1 12.7388 1 13.1875C1 13.6362 1.36377 14 1.8125 14Z" fill="#C5CCD3" stroke="#C5CCD3" stroke-width="2" stroke-linecap="round" stroke-linejoin="round"/>
</svg>
