<svg width="22" height="18" viewBox="0 0 22 18" fill="none" xmlns="http://www.w3.org/2000/svg">
<path fill-rule="evenodd" clip-rule="evenodd" d="M0.196601 1.17625C0.357126 0.954985 0.598935 0.806508 0.868884 0.76345C1.13883 0.720393 1.41483 0.786277 1.63623 0.946625L21.5737 15.3841C21.6876 15.4619 21.7848 15.5616 21.8594 15.6776C21.9341 15.7935 21.9847 15.9232 22.0083 16.0591C22.032 16.1949 22.0282 16.3341 21.9971 16.4684C21.966 16.6028 21.9083 16.7295 21.8273 16.8411C21.7464 16.9528 21.6439 17.047 21.5259 17.1184C21.4079 17.1897 21.2768 17.2367 21.1404 17.2565C21.0039 17.2763 20.8649 17.2685 20.7315 17.2336C20.5981 17.1987 20.473 17.1374 20.3637 17.0534L17.2727 14.8149C15.6007 16.1363 13.464 17.25 11 17.25C8.2761 17.25 5.95373 15.886 4.2171 14.3927C2.47085 12.894 1.20998 11.1684 0.591226 10.2375C0.347009 9.87176 0.216667 9.44184 0.216667 9.00206C0.216667 8.56228 0.347009 8.13237 0.591226 7.76663C1.0766 7.03375 1.95935 5.81412 3.15973 4.59725L0.426226 2.61588C0.204962 2.45535 0.0564845 2.21354 0.0134267 1.94359C-0.029631 1.67364 0.0362538 1.39764 0.196601 1.17625ZM4.85235 5.821C3.90114 6.7598 3.04876 7.79371 2.3086 8.9065C2.28926 8.93387 2.2787 8.96648 2.27835 9C2.27835 9.02888 2.2866 9.06187 2.3086 9.0935C2.8751 9.94737 4.01635 11.4998 5.56185 12.8294C7.1156 14.1672 8.9746 15.1875 11 15.1875C12.6431 15.1875 14.1762 14.5165 15.5237 13.5499L12.4616 11.3306C11.9973 11.6222 11.4565 11.7684 10.9086 11.7504C10.3607 11.7324 9.8306 11.5511 9.38648 11.2296C8.94237 10.9082 8.60447 10.4613 8.41617 9.94642C8.22787 9.43154 8.19777 8.87212 8.32973 8.34L4.85098 5.821H4.85235ZM11 2.8125C10.2905 2.8125 9.6016 2.93625 8.93885 3.15762C8.80943 3.20419 8.67199 3.22438 8.53465 3.21703C8.3973 3.20968 8.26281 3.17493 8.13909 3.11482C8.01538 3.05471 7.90493 2.97046 7.81427 2.86702C7.7236 2.76359 7.65455 2.64306 7.61116 2.51254C7.56777 2.38202 7.55094 2.24413 7.56164 2.10701C7.57235 1.96988 7.61037 1.83628 7.67349 1.71406C7.7366 1.59185 7.82352 1.4835 7.92914 1.39539C8.03476 1.30728 8.15693 1.24119 8.28848 1.201C9.16214 0.90569 10.0778 0.753396 11 0.75C13.7239 0.75 16.0462 2.114 17.7829 3.60725C19.5291 5.10738 20.79 6.83162 21.4087 7.76388C21.6531 8.12982 21.7835 8.55998 21.7835 9C21.7835 9.44002 21.6531 9.87018 21.4087 10.2361C21.2575 10.4644 21.0677 10.738 20.845 11.0433C20.7649 11.1525 20.6641 11.2449 20.5483 11.3152C20.4325 11.3855 20.304 11.4322 20.1701 11.4529C20.0363 11.4735 19.8996 11.4675 19.7681 11.4354C19.6365 11.4032 19.5125 11.3454 19.4033 11.2653C19.294 11.1852 19.2016 11.0844 19.1314 10.9686C19.0611 10.8528 19.0143 10.7243 18.9937 10.5905C18.9731 10.4566 18.979 10.32 19.0112 10.1884C19.0434 10.0568 19.1011 9.93287 19.1812 9.82362C19.3847 9.54725 19.5552 9.29838 19.6914 9.09488C19.7108 9.0673 19.7212 9.03441 19.7212 9.00069C19.7212 8.96697 19.7108 8.93407 19.6914 8.9065C19.1249 8.05263 17.9836 6.50025 16.4381 5.17063C14.8844 3.83275 13.0254 2.8125 11 2.8125Z" fill="black"/>
</svg>
