<svg width="22" height="22" viewBox="0 0 22 22" fill="none" xmlns="http://www.w3.org/2000/svg">
<path d="M10.0316 3.2677H3.14848C2.62691 3.2677 2.1267 3.47489 1.75789 3.8437C1.38908 4.21251 1.18188 4.71272 1.18188 5.2343V19.0005C1.18188 19.522 1.38908 20.0223 1.75789 20.3911C2.1267 20.7599 2.62691 20.9671 3.14848 20.9671H16.9147C17.4362 20.9671 17.9364 20.7599 18.3053 20.3911C18.6741 20.0223 18.8813 19.522 18.8813 19.0005V12.1174" stroke="white" stroke-width="1.84091" stroke-linecap="round" stroke-linejoin="round"/>
<path d="M17.4062 1.79271C17.7974 1.40153 18.3279 1.18176 18.8811 1.18176C19.4343 1.18176 19.9649 1.40153 20.3561 1.79271C20.7473 2.18389 20.967 2.71444 20.967 3.26765C20.967 3.82087 20.7473 4.35142 20.3561 4.7426L11.0147 14.0839L7.08154 15.0672L8.06484 11.134L17.4062 1.79271Z" stroke="white" stroke-width="1.84091" stroke-linecap="round" stroke-linejoin="round"/>
</svg>
