<svg width="28" height="28" viewBox="0 0 28 28" fill="none" xmlns="http://www.w3.org/2000/svg">
<path d="M14 0.666656C11.3629 0.666656 8.78505 1.44864 6.59239 2.91373C4.39974 4.37881 2.69077 6.4612 1.6816 8.89754C0.672434 11.3339 0.408389 14.0148 0.922859 16.6012C1.43733 19.1876 2.70721 21.5634 4.57191 23.4281C6.43661 25.2928 8.81238 26.5627 11.3988 27.0771C13.9852 27.5916 16.6661 27.3276 19.1024 26.3184C21.5388 25.3092 23.6212 23.6002 25.0863 21.4076C26.5513 19.2149 27.3333 16.6371 27.3333 14C27.3333 12.249 26.9885 10.5152 26.3184 8.89754C25.6483 7.27987 24.6662 5.81001 23.4281 4.5719C22.19 3.33379 20.7201 2.35166 19.1024 1.6816C17.4848 1.01153 15.751 0.666656 14 0.666656ZM14 24.6667C11.171 24.6667 8.45791 23.5429 6.45752 21.5425C4.45714 19.5421 3.33333 16.829 3.33333 14C3.33038 11.6311 4.12402 9.33005 5.58666 7.46666L20.5333 22.4133C18.6699 23.876 16.3689 24.6696 14 24.6667ZM22.4133 20.5333L7.46666 5.58666C9.33006 4.12401 11.6311 3.33038 14 3.33332C16.829 3.33332 19.5421 4.45713 21.5425 6.45752C23.5429 8.45791 24.6667 11.171 24.6667 14C24.6696 16.3689 23.876 18.6699 22.4133 20.5333Z" fill="white"/>
</svg>
