<svg width="49" height="47" viewBox="0 0 49 47" fill="none" xmlns="http://www.w3.org/2000/svg">
<path d="M24.9148 43.3853C35.8448 43.3853 44.9178 34.8193 44.9178 23.9953C44.9178 13.1714 35.8448 4.60533 24.9148 4.60533C13.9848 4.60533 4.91185 13.1714 4.91185 23.9953C4.91185 34.8193 13.9848 43.3853 24.9148 43.3853Z" stroke="url(#paint0_linear_1178_767)" stroke-width="6.59745"/>
<path d="M24.9148 42.5687C35.531 42.5687 44.174 34.273 44.174 23.9953C44.174 13.7176 35.531 5.422 24.9148 5.422C14.2986 5.422 5.6557 13.7176 5.6557 23.9953C5.6557 34.273 14.2986 42.5687 24.9148 42.5687Z" stroke="#F9F9F9" stroke-width="1.14245"/>
<circle cx="31.5045" cy="6.9845" r="5.0238" fill="url(#paint1_linear_1178_767)" stroke="#F9F9F9" stroke-width="2.0786"/>
<circle cx="31.4218" cy="7.06024" r="2.09018" stroke="#F9F9F9" stroke-width="0.571227"/>
<circle cx="6.9845" cy="26.3836" r="5.0238" fill="url(#paint2_linear_1178_767)" stroke="#F9F9F9" stroke-width="2.0786"/>
<circle cx="34.0531" cy="39.0155" r="5.0238" fill="url(#paint3_linear_1178_767)" stroke="#F9F9F9" stroke-width="2.0786"/>
<path d="M35.1486 31.1228C33.5927 33.1545 31.4239 34.6735 28.9385 35.4724C26.4532 36.2712 23.7726 36.3108 21.263 35.5859C18.7533 34.8609 16.5372 33.4067 14.9174 31.422C13.2976 29.4373 12.3532 27.0189 12.2131 24.4973C12.0731 21.9757 12.7443 19.4739 14.1351 17.3339C15.5258 15.1938 17.5682 13.5199 19.9832 12.5409C22.3982 11.5619 25.0679 11.3255 27.6275 11.864C30.1871 12.4026 32.5118 13.6899 34.2838 15.5499L30.5666 18.8397C29.4977 17.7177 28.0953 16.9411 26.5512 16.6162C25.0071 16.2914 23.3966 16.434 21.9398 17.0246C20.4829 17.6152 19.2508 18.625 18.4118 19.9159C17.5729 21.2069 17.168 22.7161 17.2524 24.2373C17.3369 25.7584 17.9066 27.2173 18.8838 28.4146C19.861 29.6119 21.1978 30.4892 22.7118 30.9265C24.2257 31.3639 25.8428 31.34 27.3421 30.858C28.8414 30.3761 30.1497 29.4598 31.0883 28.2341L35.1486 31.1228Z" fill="url(#paint4_linear_1178_767)"/>
<path d="M33.8173 29.9146C32.4929 31.6341 30.6467 32.9197 28.5311 33.5958C26.4155 34.2719 24.1337 34.3055 21.9975 33.6919C19.8612 33.0783 17.9748 31.8475 16.596 30.1678C15.2172 28.488 14.4132 26.4412 14.294 24.3071C14.1748 22.1729 14.7462 20.0556 15.93 18.2443C17.1139 16.4331 18.8524 15.0164 20.9081 14.1878C22.9638 13.3592 25.2364 13.1591 27.4152 13.615C29.594 14.0708 31.5728 15.1602 33.0811 16.7344L32.472 17.2704C31.0788 15.8165 29.2512 14.8102 27.2388 14.3892C25.2264 13.9682 23.1274 14.153 21.2287 14.9183C19.3301 15.6836 17.7243 16.9921 16.6309 18.665C15.5375 20.3379 15.0097 22.2936 15.1198 24.2647C15.2299 26.2358 15.9725 28.1263 17.246 29.6778C18.5195 31.2293 20.2618 32.366 22.2349 32.9327C24.208 33.4995 26.3155 33.4685 28.2695 32.844C30.2235 32.2195 31.9287 31.0321 33.1519 29.4439L33.8173 29.9146Z" fill="#F9F9F9"/>
<rect x="29.7289" y="10.0494" width="1.5325" height="2.53346" transform="rotate(15.4838 29.7289 10.0494)" fill="#EE9934"/>
<rect x="30.2784" y="34.847" width="1.5325" height="2.53346" transform="rotate(-35.5207 30.2784 34.847)" fill="#F8C637"/>
<rect x="10.356" y="26.9071" width="1.5325" height="2.53346" transform="rotate(-90 10.356 26.9071)" fill="#F4B436"/>
<circle cx="34.1288" cy="39.0913" r="2.09018" stroke="#F9F9F9" stroke-width="0.571227"/>
<circle cx="7.0603" cy="26.4593" r="2.09018" stroke="#F9F9F9" stroke-width="0.571227"/>
<defs>
<linearGradient id="paint0_linear_1178_767" x1="24.9148" y1="7.90405" x2="24.9148" y2="40.0866" gradientUnits="userSpaceOnUse">
<stop stop-color="#68B4E5"/>
<stop offset="1" stop-color="#AACE6A"/>
</linearGradient>
<linearGradient id="paint1_linear_1178_767" x1="31.198" y1="9.28325" x2="32.1175" y2="3" gradientUnits="userSpaceOnUse">
<stop stop-color="#EE9934"/>
<stop offset="1" stop-color="#F9C837"/>
</linearGradient>
<linearGradient id="paint2_linear_1178_767" x1="3.3065" y1="26.9966" x2="10.0495" y2="26.3836" gradientUnits="userSpaceOnUse">
<stop stop-color="#EE9934"/>
<stop offset="1" stop-color="#F4B436"/>
</linearGradient>
<linearGradient id="paint3_linear_1178_767" x1="36.5051" y1="41.9273" x2="32.8271" y2="36.5635" gradientUnits="userSpaceOnUse">
<stop stop-color="#EE9934"/>
<stop offset="1" stop-color="#F9C837"/>
</linearGradient>
<linearGradient id="paint4_linear_1178_767" x1="24.9147" y1="11.582" x2="24.9147" y2="36.102" gradientUnits="userSpaceOnUse">
<stop stop-color="#ED9333"/>
<stop offset="1" stop-color="#F9CB37"/>
</linearGradient>
</defs>
</svg>
