<svg width="173" height="47" viewBox="0 0 173 47" fill="none" xmlns="http://www.w3.org/2000/svg">
<path d="M24.9148 43.3853C35.8448 43.3853 44.9178 34.8193 44.9178 23.9953C44.9178 13.1714 35.8448 4.60533 24.9148 4.60533C13.9848 4.60533 4.91185 13.1714 4.91185 23.9953C4.91185 34.8193 13.9848 43.3853 24.9148 43.3853Z" stroke="url(#paint0_linear_1194_1866)" stroke-width="6.59745"/>
<path d="M24.9148 42.5687C35.531 42.5687 44.174 34.2731 44.174 23.9954C44.174 13.7177 35.531 5.42206 24.9148 5.42206C14.2986 5.42206 5.6557 13.7177 5.6557 23.9954C5.6557 34.2731 14.2986 42.5687 24.9148 42.5687Z" stroke="#F9F9F9" stroke-width="1.14245"/>
<circle cx="31.5045" cy="6.9845" r="5.0238" fill="url(#paint1_linear_1194_1866)" stroke="#F9F9F9" stroke-width="2.0786"/>
<circle cx="31.4218" cy="7.0603" r="2.09018" stroke="#F9F9F9" stroke-width="0.571227"/>
<circle cx="6.9845" cy="26.3836" r="5.0238" fill="url(#paint2_linear_1194_1866)" stroke="#F9F9F9" stroke-width="2.0786"/>
<circle cx="34.0531" cy="39.0155" r="5.0238" fill="url(#paint3_linear_1194_1866)" stroke="#F9F9F9" stroke-width="2.0786"/>
<path d="M35.1486 31.1228C33.5927 33.1545 31.4239 34.6736 28.9385 35.4724C26.4532 36.2713 23.7726 36.3109 21.263 35.5859C18.7533 34.861 16.5372 33.4068 14.9174 31.422C13.2976 29.4373 12.3532 27.0189 12.2131 24.4973C12.0731 21.9757 12.7443 19.474 14.1351 17.3339C15.5258 15.1939 17.5682 13.52 19.9832 12.541C22.3982 11.5619 25.0679 11.3255 27.6275 11.8641C30.1871 12.4027 32.5118 13.6899 34.2838 15.5499L30.5666 18.8398C29.4977 17.7177 28.0953 16.9412 26.5512 16.6163C25.0071 16.2914 23.3966 16.434 21.9398 17.0246C20.4829 17.6152 19.2508 18.625 18.4118 19.916C17.5729 21.207 17.168 22.7162 17.2524 24.2373C17.3369 25.7585 17.9066 27.2174 18.8838 28.4147C19.861 29.612 21.1978 30.4892 22.7118 30.9266C24.2257 31.3639 25.8428 31.34 27.3421 30.8581C28.8414 30.3762 30.1497 29.4598 31.0883 28.2342L35.1486 31.1228Z" fill="url(#paint4_linear_1194_1866)"/>
<path d="M33.8173 29.9146C32.4929 31.6341 30.6467 32.9197 28.5311 33.5958C26.4155 34.2719 24.1337 34.3055 21.9975 33.6919C19.8612 33.0783 17.9748 31.8475 16.596 30.1678C15.2172 28.488 14.4132 26.4412 14.294 24.3071C14.1748 22.1729 14.7462 20.0556 15.93 18.2443C17.1139 16.4331 18.8524 15.0164 20.9081 14.1878C22.9638 13.3592 25.2364 13.1591 27.4152 13.615C29.594 14.0708 31.5728 15.1602 33.0811 16.7344L32.472 17.2704C31.0788 15.8165 29.2512 14.8102 27.2388 14.3892C25.2264 13.9682 23.1274 14.153 21.2287 14.9183C19.3301 15.6836 17.7243 16.9921 16.6309 18.665C15.5375 20.3379 15.0097 22.2936 15.1198 24.2647C15.2299 26.2358 15.9725 28.1263 17.246 29.6778C18.5195 31.2293 20.2618 32.366 22.2349 32.9327C24.208 33.4995 26.3155 33.4685 28.2695 32.844C30.2235 32.2195 31.9287 31.0321 33.1519 29.4439L33.8173 29.9146Z" fill="#F9F9F9"/>
<rect x="29.7289" y="10.0494" width="1.5325" height="2.53346" transform="rotate(15.4838 29.7289 10.0494)" fill="#EE9934"/>
<rect x="30.2784" y="34.8469" width="1.5325" height="2.53346" transform="rotate(-35.5207 30.2784 34.8469)" fill="#F8C637"/>
<rect x="10.356" y="26.9071" width="1.5325" height="2.53346" transform="rotate(-90 10.356 26.9071)" fill="#F4B436"/>
<circle cx="34.1288" cy="39.0913" r="2.09018" stroke="#F9F9F9" stroke-width="0.571227"/>
<circle cx="7.0603" cy="26.4593" r="2.09018" stroke="#F9F9F9" stroke-width="0.571227"/>
<path d="M66.8777 29.363C65.7533 29.363 64.7071 29.1709 63.7393 28.7866C62.7856 28.388 61.9459 27.8329 61.22 27.1213C60.5083 26.4096 59.9532 25.5841 59.5547 24.6447C59.1561 23.691 58.9569 22.6662 58.9569 21.5703C58.9569 20.4743 59.1561 19.4566 59.5547 18.5172C59.9532 17.5636 60.5083 16.7381 61.22 16.0406C61.9316 15.3432 62.7643 14.8023 63.7179 14.418C64.6858 14.0195 65.7319 13.8202 66.8564 13.8202C68.052 13.8202 69.1124 14.0124 70.0375 14.3967C70.9769 14.781 71.7953 15.3076 72.4928 15.9766L70.251 18.2397C69.8525 17.8127 69.3686 17.4782 68.7992 17.2362C68.2441 16.9943 67.5965 16.8733 66.8564 16.8733C66.2016 16.8733 65.5967 16.9871 65.0416 17.2149C64.5008 17.4284 64.0311 17.7415 63.6325 18.1543C63.2482 18.567 62.9422 19.0652 62.7145 19.6488C62.501 20.2323 62.3942 20.8728 62.3942 21.5703C62.3942 22.2819 62.501 22.9296 62.7145 23.5131C62.9422 24.0967 63.2482 24.5949 63.6325 25.0076C64.0311 25.4204 64.5008 25.7406 65.0416 25.9684C65.5967 26.1961 66.2016 26.31 66.8564 26.31C67.625 26.31 68.2939 26.189 68.8633 25.947C69.4326 25.7051 69.9237 25.3706 70.3364 24.9436L72.5995 27.2067C71.8736 27.8756 71.041 28.4023 70.1016 28.7866C69.1764 29.1709 68.1018 29.363 66.8777 29.363ZM81.0356 29.3844C79.897 29.3844 78.8437 29.1851 77.8758 28.7866C76.9222 28.388 76.0824 27.8329 75.3565 27.1213C74.6306 26.4096 74.0684 25.5841 73.6699 24.6447C73.2713 23.691 73.0721 22.6662 73.0721 21.5703C73.0721 20.4601 73.2713 19.4353 73.6699 18.4959C74.0684 17.5565 74.6235 16.7381 75.3352 16.0406C76.0468 15.329 76.8795 14.781 77.8331 14.3967C78.801 13.9981 79.8543 13.7989 80.9929 13.7989C82.1174 13.7989 83.1564 13.9981 84.11 14.3967C85.0779 14.781 85.9177 15.329 86.6293 16.0406C87.3552 16.7381 87.9174 17.5636 88.316 18.5172C88.7145 19.4566 88.9138 20.4814 88.9138 21.5916C88.9138 22.6876 88.7145 23.7124 88.316 24.666C87.9174 25.6054 87.3623 26.431 86.6507 27.1426C85.939 27.8401 85.0992 28.388 84.1314 28.7866C83.1777 29.1851 82.1458 29.3844 81.0356 29.3844ZM80.9929 26.3313C81.8896 26.3313 82.6725 26.1321 83.3414 25.7335C84.0246 25.335 84.5513 24.7799 84.9213 24.0682C85.2914 23.3423 85.4764 22.5097 85.4764 21.5703C85.4764 20.8586 85.3697 20.2181 85.1562 19.6488C84.9427 19.0652 84.6367 18.567 84.2381 18.1543C83.8396 17.7273 83.3628 17.407 82.8077 17.1935C82.2668 16.9658 81.6619 16.8519 80.9929 16.8519C80.0962 16.8519 79.3063 17.0512 78.6231 17.4497C77.9541 17.834 77.4346 18.382 77.0645 19.0937C76.6945 19.7911 76.5094 20.6166 76.5094 21.5703C76.5094 22.2819 76.6162 22.9296 76.8297 23.5131C77.0432 24.0967 77.3421 24.602 77.7264 25.029C78.1249 25.4417 78.6017 25.762 79.1568 25.9897C79.7119 26.2175 80.324 26.3313 80.9929 26.3313ZM91.0416 29.1282V14.0551H93.4328L99.3681 23.2996H98.1511L104.065 14.0551H106.478V29.1282H103.126V19.7128L103.723 19.8623L99.8591 25.883H97.6387L93.7957 19.8623L94.3722 19.7128V29.1282H91.0416ZM115.432 29.363C114.194 29.363 113.098 29.0997 112.144 28.5731C111.205 28.0464 110.464 27.3205 109.924 26.3954C109.397 25.456 109.134 24.3885 109.134 23.1929V14.0551H112.507V23.385C112.507 23.9828 112.635 24.5023 112.891 24.9436C113.147 25.3848 113.496 25.7264 113.937 25.9684C114.393 26.1961 114.891 26.31 115.432 26.31C116.001 26.31 116.499 26.1961 116.926 25.9684C117.353 25.7264 117.688 25.3919 117.93 24.9649C118.186 24.5237 118.314 24.0042 118.314 23.4064V14.0551H121.687V23.2142C121.687 24.4098 121.424 25.4702 120.897 26.3954C120.371 27.3205 119.638 28.0464 118.698 28.5731C117.759 29.0997 116.67 29.363 115.432 29.363ZM124.359 29.1282V14.0551H126.708L127.711 17.0654V29.1282H124.359ZM134.757 29.1282L125.875 17.7486L126.708 14.0551L135.589 25.4346L134.757 29.1282ZM134.757 29.1282L133.86 26.1178V14.0551H137.212V29.1282H134.757ZM140.122 29.1282V14.0551H143.474V29.1282H140.122ZM146.376 29.1282V14.0551H149.728V29.1282H146.376ZM148.938 23.2142V20.332H156.475V23.2142H148.938ZM148.938 16.9373V14.0551H156.817V16.9373H148.938ZM163.603 23.5131L157.795 14.0551H161.681L166.143 21.6984H163.645L168.107 14.0551H171.908L166.058 23.5131H163.603ZM163.197 29.1282V21.9759H166.549V29.1282H163.197Z" fill="#05060A"/>
<defs>
<linearGradient id="paint0_linear_1194_1866" x1="24.9148" y1="7.90405" x2="24.9148" y2="40.0866" gradientUnits="userSpaceOnUse">
<stop stop-color="#68B4E5"/>
<stop offset="1" stop-color="#AACE6A"/>
</linearGradient>
<linearGradient id="paint1_linear_1194_1866" x1="31.198" y1="9.28325" x2="32.1175" y2="3" gradientUnits="userSpaceOnUse">
<stop stop-color="#EE9934"/>
<stop offset="1" stop-color="#F9C837"/>
</linearGradient>
<linearGradient id="paint2_linear_1194_1866" x1="3.3065" y1="26.9966" x2="10.0495" y2="26.3836" gradientUnits="userSpaceOnUse">
<stop stop-color="#EE9934"/>
<stop offset="1" stop-color="#F4B436"/>
</linearGradient>
<linearGradient id="paint3_linear_1194_1866" x1="36.5051" y1="41.9273" x2="32.8271" y2="36.5635" gradientUnits="userSpaceOnUse">
<stop stop-color="#EE9934"/>
<stop offset="1" stop-color="#F9C837"/>
</linearGradient>
<linearGradient id="paint4_linear_1194_1866" x1="24.9147" y1="11.582" x2="24.9147" y2="36.102" gradientUnits="userSpaceOnUse">
<stop stop-color="#ED9333"/>
<stop offset="1" stop-color="#F9CB37"/>
</linearGradient>
</defs>
</svg>
