<svg width="226" height="237" viewBox="0 0 226 237" fill="none" xmlns="http://www.w3.org/2000/svg">
<g filter="url(#filter0_d_3907_2098)">
<rect x="55.1245" y="12.3971" width="156.458" height="189.117" rx="5.85409" fill="url(#paint0_linear_3907_2098)"/>
</g>
<path fill-rule="evenodd" clip-rule="evenodd" d="M67.5552 2.99958C67.2728 3.34002 67.1684 3.94794 67.3233 4.35052C67.5691 4.99132 68.6715 5.08319 76.126 5.08319C83.3175 5.08319 84.6888 4.97691 84.9094 4.40186C85.0535 4.0272 84.9207 3.41927 84.6149 3.05092C83.8295 2.10436 68.3369 2.05797 67.5552 2.99958ZM56.0249 6.08153C51.9617 7.51714 48.5843 11.3691 47.7184 15.5575C47.3743 17.2219 47.2658 48.1783 47.3496 120.589L47.4689 223.261L48.4366 225.354C49.6029 227.877 52.2548 230.625 54.6888 231.831C56.441 232.7 57.932 232.719 132.511 232.835C182.091 232.912 209.128 232.796 210.217 232.503C214.686 231.3 218.335 227.178 219.233 222.321C219.558 220.562 219.714 201.172 219.714 162.52C219.714 118.034 219.834 105.443 220.255 105.864C220.967 106.576 221.31 106.546 222.159 105.697C222.771 105.084 222.864 103.167 222.851 91.399C222.838 80.7482 222.701 77.5676 222.217 76.6927C221.692 75.7439 221.694 75.3931 222.233 74.351C222.737 73.3761 222.866 70.3189 222.866 59.4006C222.866 47.524 222.771 45.5804 222.159 44.968C221.31 44.1187 220.967 44.089 220.255 44.8009C219.834 45.2211 219.714 42.4026 219.714 32.1165C219.714 24.5435 219.503 17.6789 219.22 16.0547C218.507 11.9613 216.274 8.92212 212.571 7.00513L209.729 5.5335L133.552 5.56908C81.1493 5.59339 56.9543 5.75371 56.0249 6.08153ZM208.795 107.257C208.879 173.585 208.775 197.659 208.402 198.108C207.98 198.617 195.583 198.718 133.686 198.718C92.8705 198.718 59.1555 198.596 58.7637 198.445C58.1175 198.197 58.0513 189.79 58.0513 107.782C58.0513 58.0672 58.1868 17.2561 58.353 17.0904C58.5187 16.9242 92.4103 16.84 133.668 16.9026L208.682 17.0165L208.795 107.257ZM136.315 208.905C138.917 210.589 139.857 214.46 138.253 216.893C135.731 220.718 131.018 220.795 128.733 217.047C125.555 211.835 131.303 205.663 136.315 208.905Z" fill="black"/>
<g filter="url(#filter1_d_3907_2098)">
<g filter="url(#filter2_d_3907_2098)">
<rect x="7.14655" y="91.08" width="76.0042" height="134.494" rx="1.9345" fill="url(#paint1_linear_3907_2098)"/>
</g>
<path fill-rule="evenodd" clip-rule="evenodd" d="M12.3798 85.2727C6.79413 86.7746 2.41298 91.2183 0.939487 96.8756C0.194976 99.7334 0.194976 217.81 0.939487 220.668C2.43214 226.398 6.82222 230.803 12.5219 232.287C15.4431 233.048 75.3331 233.048 78.2543 232.287C83.954 230.803 88.344 226.398 89.8367 220.668C90.265 219.024 90.3297 210.893 90.3297 158.772C90.3297 105.958 90.2693 98.5355 89.8238 96.8257C88.3391 91.1261 83.9348 86.736 78.2044 85.2433C75.4213 84.5183 15.0842 84.5454 12.3798 85.2727ZM21.7369 96.4718C22.0072 97.9109 23.3826 99.5728 24.7913 100.161C26.3791 100.825 64.3971 100.825 65.9849 100.161C67.4032 99.5688 68.7696 97.9083 69.0443 96.4434L69.265 95.2686L72.8349 95.3793C76.6913 95.4989 77.4345 95.7907 78.9086 97.7652L79.59 98.6779V158.772V218.866L78.9086 219.778C78.5339 220.28 77.8168 220.997 77.3148 221.372C76.4084 222.049 76.1966 222.054 45.3881 222.054C14.5796 222.054 14.3678 222.049 13.4614 221.372C12.9594 220.997 12.2423 220.28 11.8676 219.778L11.1862 218.866L11.0917 159.656C11.0398 127.091 11.0828 99.968 11.1875 99.3824C11.4244 98.0576 12.8137 96.369 14.1437 95.7897C14.7432 95.5287 16.443 95.3453 18.3369 95.3377L21.5218 95.3248L21.7369 96.4718Z" fill="#2D2D2D"/>
</g>
<path d="M156.58 109.891L155.697 108.806C158.058 106.78 159.753 104.946 160.879 103.238L162.04 104.001C160.847 105.839 159.06 107.758 156.58 109.891ZM163.878 94.7C164.353 87.926 161.675 82.1574 156.141 78.0357L157.026 76.8497C162.957 81.2685 165.81 87.4546 165.293 94.7338L163.878 94.7Z" fill="#656E77"/>
<path d="M143.945 113.999C142.535 116.489 140.393 118.847 137.514 118.79L128.877 118.618C128.01 118.601 127.338 117.877 127.395 117.023C127.582 114.362 128.033 112.196 128.739 110.537C129.446 108.878 130.446 107.383 131.703 106.033C132.972 104.688 135.772 102.313 140.123 98.932C142.439 97.1548 143.641 95.5135 143.751 94.0013C143.86 92.4891 143.5 91.3026 142.683 90.4481C141.865 89.5936 140.569 89.1428 138.787 89.1088C136.866 89.0706 135.246 89.6949 133.897 90.9498C133.41 91.4123 132.973 92.0021 132.585 92.7191C131.205 95.2763 128.699 97.3304 125.81 96.9063L120.797 96.1704C117.863 95.7397 115.793 93.0057 116.801 90.2394C118.089 86.7038 120.08 83.7283 122.775 81.3085C126.678 77.7862 132.416 76.1055 139.963 76.254C145.836 76.373 150.501 77.7185 153.94 80.2973C158.615 83.7753 160.749 88.3407 160.351 93.9805C160.188 96.3233 159.397 98.5668 157.98 100.711C156.562 102.855 153.786 105.457 149.649 108.517C146.773 110.673 144.931 112.39 144.115 113.713C144.057 113.806 144 113.901 143.945 113.999ZM126.121 127.836C126.32 124.995 128.757 122.794 131.641 122.851L137.355 122.964C140.406 123.024 142.77 125.576 142.559 128.582L142.264 132.791C142.064 135.632 139.628 137.833 136.744 137.776L131.029 137.663C127.979 137.603 125.615 135.051 125.826 132.045L126.121 127.836Z" fill="white"/>
<path d="M55.6337 155.771L55.0357 155.037C56.6347 153.665 57.7821 152.424 58.5441 151.267L59.3301 151.784C58.5221 153.028 57.3125 154.328 55.6337 155.771ZM60.5744 145.487C60.8957 140.902 59.0831 136.996 55.3365 134.206L55.9359 133.403C59.9506 136.395 61.8824 140.583 61.5321 145.51L60.5744 145.487Z" fill="#656E77"/>
<path d="M47.1955 158.359C46.0948 160.106 44.5756 161.832 42.5006 161.791L36.8797 161.679C36.2928 161.668 35.8376 161.178 35.8764 160.599C36.0031 158.798 36.308 157.331 36.7864 156.209C37.2648 155.086 37.942 154.074 38.7925 153.159C39.6515 152.249 41.5476 150.641 44.493 148.352C46.0604 147.149 46.8746 146.038 46.9487 145.014C47.0228 143.991 46.7789 143.188 46.2256 142.609C45.6722 142.031 44.7948 141.725 43.5886 141.702C42.2877 141.677 41.1912 142.099 40.2782 142.949C38.2391 144.884 36.099 147.171 33.3177 146.763L33.1248 146.735C30.1916 146.304 28.079 143.53 29.3783 140.883C30.2186 139.172 31.3418 137.685 32.7486 136.422C35.3913 134.037 39.2755 132.9 44.3844 133C48.3602 133.081 51.5186 133.991 53.8465 135.737C57.0111 138.092 58.4564 141.182 58.1868 145C58.0761 146.586 57.5409 148.105 56.5813 149.557C55.6217 151.008 53.742 152.77 50.942 154.841C48.995 156.301 47.748 157.463 47.1955 158.359ZM34.9179 169.288C35.1065 166.6 37.4111 164.519 40.1389 164.572L41.1161 164.592C44.0017 164.649 46.2376 167.063 46.0381 169.906C45.8494 172.594 43.5449 174.675 40.8171 174.621L39.8399 174.602C36.9542 174.545 34.7184 172.131 34.9179 169.288Z" fill="white"/>
<defs>
<filter id="filter0_d_3907_2098" x="41.615" y="0.688885" width="183.477" height="216.136" filterUnits="userSpaceOnUse" color-interpolation-filters="sRGB">
<feFlood flood-opacity="0" result="BackgroundImageFix"/>
<feColorMatrix in="SourceAlpha" type="matrix" values="0 0 0 0 0 0 0 0 0 0 0 0 0 0 0 0 0 0 127 0" result="hardAlpha"/>
<feOffset dy="1.80126"/>
<feGaussianBlur stdDeviation="6.75472"/>
<feComposite in2="hardAlpha" operator="out"/>
<feColorMatrix type="matrix" values="0 0 0 0 0 0 0 0 0 0 0 0 0 0 0 0 0 0 0.1 0"/>
<feBlend mode="normal" in2="BackgroundImageFix" result="effect1_dropShadow_3907_2098"/>
<feBlend mode="normal" in="SourceGraphic" in2="effect1_dropShadow_3907_2098" result="shape"/>
</filter>
<filter id="filter1_d_3907_2098" x="0.381104" y="74.7132" width="104.949" height="162.145" filterUnits="userSpaceOnUse" color-interpolation-filters="sRGB">
<feFlood flood-opacity="0" result="BackgroundImageFix"/>
<feColorMatrix in="SourceAlpha" type="matrix" values="0 0 0 0 0 0 0 0 0 0 0 0 0 0 0 0 0 0 127 0" result="hardAlpha"/>
<feOffset dx="8" dy="-3"/>
<feGaussianBlur stdDeviation="3.5"/>
<feComposite in2="hardAlpha" operator="out"/>
<feColorMatrix type="matrix" values="0 0 0 0 0.00833333 0 0 0 0 0.00833333 0 0 0 0 0.00833333 0 0 0 0.29 0"/>
<feBlend mode="normal" in2="BackgroundImageFix" result="effect1_dropShadow_3907_2098"/>
<feBlend mode="normal" in="SourceGraphic" in2="effect1_dropShadow_3907_2098" result="shape"/>
</filter>
<filter id="filter2_d_3907_2098" x="2.68231" y="87.211" width="84.9327" height="143.423" filterUnits="userSpaceOnUse" color-interpolation-filters="sRGB">
<feFlood flood-opacity="0" result="BackgroundImageFix"/>
<feColorMatrix in="SourceAlpha" type="matrix" values="0 0 0 0 0 0 0 0 0 0 0 0 0 0 0 0 0 0 127 0" result="hardAlpha"/>
<feOffset dy="0.595232"/>
<feGaussianBlur stdDeviation="2.23212"/>
<feComposite in2="hardAlpha" operator="out"/>
<feColorMatrix type="matrix" values="0 0 0 0 0 0 0 0 0 0 0 0 0 0 0 0 0 0 0.1 0"/>
<feBlend mode="normal" in2="BackgroundImageFix" result="effect1_dropShadow_3907_2098"/>
<feBlend mode="normal" in="SourceGraphic" in2="effect1_dropShadow_3907_2098" result="shape"/>
</filter>
<linearGradient id="paint0_linear_3907_2098" x1="211.582" y1="183.013" x2="38.964" y2="164.697" gradientUnits="userSpaceOnUse">
<stop stop-color="#69B5E5"/>
<stop offset="1" stop-color="#ABCF6B"/>
</linearGradient>
<linearGradient id="paint1_linear_3907_2098" x1="83.1508" y1="212.417" x2="-1.20486" y2="206.303" gradientUnits="userSpaceOnUse">
<stop stop-color="#69B5E5"/>
<stop offset="1" stop-color="#ABCF6B"/>
</linearGradient>
</defs>
</svg>
