<svg width="331" height="331" viewBox="0 0 331 331" fill="none" xmlns="http://www.w3.org/2000/svg">
<path d="M262.528 217.247C268.511 208.588 271.519 198.79 271.746 189.228C275.234 186.519 278.407 183.213 281.089 179.338C293.412 161.515 291.081 138.108 276.308 125.22C282.156 98.5795 273.139 70.7844 251.058 55.2326C233.603 42.9405 211.846 41.0261 192.249 48.0407C189.951 42.554 186.234 37.7011 181.158 34.1285C165.846 23.3467 144.066 28.1541 132.51 44.8724C130.579 47.6663 129.065 50.622 127.938 53.6543C109.277 51.8301 89.5551 60.6605 77.3711 78.293C66.4248 94.1282 64.1699 113.286 69.7191 129.372C67.4962 131.482 65.4359 133.851 63.6123 136.492C50.4925 155.475 53.9471 180.779 71.3328 193.021C77.0624 197.055 83.595 199.153 90.2395 199.497C93.6307 212.325 101.097 223.822 112.359 231.754C126.862 241.967 144.664 244.192 161.168 239.478C161.817 256.078 158.759 279.693 140.46 297.958C180.097 306.189 221.729 276.041 228.963 238.531C241.783 236.678 254.177 229.329 262.528 217.247Z" fill="#F8FBFD"/>
<path d="M153.439 293.165C153.234 293.099 153.059 292.95 152.966 292.742C152.839 292.458 152.872 292.121 153.06 291.844C165.623 273.627 167.598 252.943 167.05 238.802L166.767 231.634L159.95 233.579C149.661 236.522 139.074 236.427 129.345 233.316C124.547 231.782 120.018 229.528 115.877 226.611C106.014 219.661 99.1084 209.588 95.9049 197.485L94.8719 193.574L90.9069 193.374C85.0899 193.08 79.5412 191.184 74.8378 187.871C67.6944 182.84 63.0784 175.075 61.8347 165.997C60.5989 156.922 62.8864 147.634 68.2808 139.826C69.7886 137.646 71.5361 135.608 73.4752 133.772L76.5943 130.814L75.2501 126.935C70.1353 112.111 72.6675 95.1671 82.0334 81.6177C92.5171 66.4572 109.707 58.0808 126.897 59.7622L131.622 60.2234L133.383 55.481C134.339 52.8997 135.618 50.4497 137.18 48.1933C144.888 37.0945 158.585 31.9787 170.488 35.7848C173.001 36.5884 175.379 37.7703 177.551 39.2993C181.606 42.1613 184.788 46.1501 186.75 50.836L188.757 55.6396L193.765 53.8477C206.442 49.3149 220.116 48.9628 232.288 52.8548C237.694 54.5834 242.799 57.1248 247.466 60.4168C266.977 74.1543 276.023 99.2335 270.518 124.31L269.737 127.847L272.287 130.068C285.031 141.182 286.78 160.948 276.347 176.04C274.125 179.248 271.461 182.07 268.412 184.442L265.891 186.401L265.81 189.562C265.608 198.224 262.825 206.661 257.784 213.954C250.797 224.055 240.141 230.809 228.547 232.482L224.028 233.137L223.125 237.797C220.04 253.805 209.731 269.068 194.839 279.679C182.436 288.517 167.821 293.32 153.673 293.202C153.592 293.205 153.51 293.188 153.439 293.165ZM167.883 229.685C167.962 229.71 168.038 229.744 168.108 229.795C168.302 229.941 168.423 230.167 168.428 230.422L168.751 238.605C169.305 252.683 167.383 273.121 155.342 291.43C168.656 291.197 182.309 286.546 193.962 278.245C208.452 267.918 218.481 253.091 221.479 237.571L222.506 232.247C222.587 231.851 222.899 231.548 223.281 231.492L228.45 230.745C239.56 229.142 249.76 222.674 256.452 213.003C261.277 206.016 263.937 197.943 264.132 189.644L264.216 186.034C264.22 185.754 264.362 185.481 264.586 185.299L267.475 183.055C270.374 180.804 272.91 178.119 275.01 175.078C284.911 160.753 283.258 141.993 271.158 131.441L268.245 128.907C268.024 128.714 267.925 128.401 267.994 128.086L268.879 124.039C274.235 99.6461 265.438 75.2463 246.461 61.8857C241.91 58.6872 236.938 56.2165 231.682 54.5359C219.842 50.7501 206.54 51.099 194.226 55.5043L188.5 57.5538C188.085 57.7023 187.657 57.5188 187.501 57.1219L185.202 51.6345C183.355 47.2195 180.36 43.4687 176.543 40.7767C174.498 39.3352 172.265 38.2182 169.893 37.46C158.686 33.8764 145.795 38.6874 138.556 49.1678C137.086 51.2939 135.885 53.6002 134.986 56.0218L132.972 61.4425C132.822 61.835 132.437 62.0963 132.047 62.0557L126.64 61.5268C110.073 59.9038 93.5128 67.9754 83.413 82.5837C74.3911 95.6432 71.9443 111.958 76.8815 126.247L78.413 130.683C78.5295 131.02 78.4249 131.409 78.1579 131.661L74.5885 135.037C72.744 136.782 71.0864 138.717 69.6526 140.789C64.5341 148.198 62.3627 157.018 63.5352 165.632C64.7157 174.249 69.0947 181.62 75.8774 186.403C80.3424 189.547 85.6096 191.343 91.1306 191.627L95.6657 191.859C96.0042 191.873 96.2908 192.106 96.3806 192.444L97.5633 196.918C100.662 208.651 107.354 218.411 116.917 225.143C120.93 227.973 125.326 230.157 129.974 231.643C139.403 234.658 149.659 234.741 159.639 231.895L167.43 229.671C167.564 229.64 167.733 229.637 167.883 229.685Z" fill="white"/>
<path d="M146.17 135.847L126.364 125.614L127.5 123.477C129.43 119.842 131.375 117.088 133.347 115.21C135.316 113.341 137.55 111.855 140.058 110.755C142.562 109.664 147.711 108.113 155.499 106.121C159.625 105.101 162.239 103.559 163.329 101.502C164.422 99.4358 164.709 97.5408 164.19 95.8167C163.663 94.0901 162.259 92.633 159.967 91.4512C157.499 90.1757 154.992 90.0071 152.445 90.9262C149.894 91.8537 147.228 94.3952 144.446 98.5507L125.655 85.3964C130.611 77.7301 136.734 72.667 144.04 70.2122C151.349 67.7491 159.858 69.0381 169.591 74.0675C177.164 77.9856 182.372 82.8531 185.225 88.6642C189.103 96.5479 189.003 104.333 184.928 112.011C183.238 115.201 180.788 117.849 177.582 119.965C174.376 122.082 169.119 123.981 161.817 125.644C156.713 126.826 153.224 128.097 151.341 129.434C149.441 130.794 147.722 132.92 146.17 135.847ZM122.67 130.941L143.886 141.906L133.175 162.095L111.959 151.13L122.67 130.941Z" fill="#E9F6FF"/>
<path d="M191.531 187.148L183.41 173.246L184.819 172.298C187.208 170.688 189.305 169.642 191.113 169.178C192.913 168.713 194.746 168.595 196.597 168.821C198.448 169.047 202.015 169.971 207.282 171.589C210.062 172.469 212.131 172.455 213.485 171.537C214.839 170.619 215.662 169.512 215.952 168.216C216.242 166.92 215.911 165.463 214.974 163.85C213.965 162.12 212.55 161.077 210.729 160.72C208.908 160.363 206.464 160.998 203.396 162.635L196.88 147.238C202.439 144.175 207.792 143.202 212.94 144.342C218.088 145.481 222.653 149.464 226.643 156.294C229.747 161.612 231.132 166.661 230.803 171.444C230.364 177.927 227.62 182.876 222.565 186.28C220.468 187.692 218.112 188.478 215.501 188.647C212.883 188.814 209.134 188.075 204.264 186.434C200.853 185.296 198.364 184.81 196.788 184.972C195.207 185.124 193.455 185.849 191.531 187.148ZM179.402 175.286L188.101 190.179L174.829 199.127L166.13 184.234L179.402 175.286Z" fill="#E9F6FF"/>
<path d="M219.106 117.329L216.666 108.257L217.56 107.94C219.087 107.391 220.371 107.123 221.412 107.136C222.453 107.148 223.459 107.357 224.438 107.764C225.406 108.177 227.213 109.236 229.842 110.943C231.223 111.856 232.343 112.166 233.21 111.85C234.074 111.542 234.673 111.036 235.016 110.354C235.354 109.662 235.383 108.794 235.105 107.745C234.804 106.612 234.181 105.809 233.242 105.34C232.307 104.862 230.892 104.852 229.002 105.303L227.635 95.6411C231.082 94.755 234.115 95.018 236.747 96.4438C239.38 97.8696 241.293 100.799 242.489 105.252C243.421 108.717 243.464 111.774 242.607 114.421C241.456 118.011 239.272 120.384 236.05 121.531C234.717 122.009 233.331 122.094 231.889 121.793C230.446 121.492 228.523 120.509 226.11 118.843C224.417 117.689 223.137 117.035 222.26 116.886C221.383 116.738 220.338 116.884 219.106 117.329ZM214.203 108.798L216.819 118.511L208.365 121.537L205.749 111.824L214.203 108.798Z" fill="#E9F6FF"/>
</svg>
