<svg width="41" height="40" viewBox="0 0 41 40" fill="none" xmlns="http://www.w3.org/2000/svg">
<path fill-rule="evenodd" clip-rule="evenodd" d="M4.03124 0.113143C2.27539 0.493153 0.811834 1.96974 0.444647 3.73192C0.344562 4.21236 0.328655 4.99044 0.347318 8.50541L0.369603 12.7049L0.580875 13.0217C0.906171 13.5095 1.29115 13.7094 1.90513 13.7094C2.5191 13.7094 2.90401 13.5096 3.22938 13.0218L3.44066 12.7051L3.48003 8.43272L3.5194 4.16038L3.73469 3.85455C3.85304 3.68635 4.08077 3.46078 4.24063 3.35331L4.53127 3.15791L8.90753 3.11883L13.2838 3.07976L13.5843 2.89428C13.7497 2.79229 13.98 2.56617 14.0962 2.39195C14.2722 2.12801 14.3075 1.98834 14.3075 1.55565C14.3075 1.12296 14.2722 0.98329 14.0962 0.719346C13.98 0.545129 13.7497 0.319015 13.5843 0.217017L13.2838 0.031545L8.91343 0.0169293C5.3929 0.00520538 4.44355 0.0238854 4.03124 0.113143ZM27.6713 0.0807072C27.2994 0.18716 26.8149 0.699259 26.7059 1.10131C26.5173 1.79615 26.7974 2.52647 27.3935 2.89428L27.6941 3.07976L32.0704 3.11883L36.4466 3.15791L36.7373 3.35331C36.8971 3.46078 37.1248 3.68635 37.2432 3.85455L37.4585 4.16038L37.4979 8.43272L37.5372 12.7051L37.7485 13.0218C38.075 13.5112 38.4583 13.7094 39.0785 13.7094C39.5082 13.7094 39.6503 13.6738 39.9153 13.4997C40.0909 13.3844 40.3187 13.1558 40.4214 12.9917L40.6083 12.6933L40.6306 8.49963C40.6555 3.79452 40.6405 3.61765 40.1244 2.57172C39.7259 1.76402 38.8627 0.907319 38.0491 0.511912C37.0131 0.00848807 36.8519 -0.00550244 32.1432 0.000906622C29.7412 0.00411115 27.819 0.038423 27.6713 0.0807072ZM10.3702 11.5438C10.0296 11.6634 9.68742 11.9226 9.48252 12.2161C9.30172 12.475 9.26786 12.6049 9.26802 13.0384C9.26826 13.4884 9.29952 13.5977 9.51646 13.9081C9.653 14.1033 10.744 15.2192 11.9411 16.3878L14.1175 18.5126L7.74958 18.5339L1.38171 18.5553L1.06256 18.765C0.5693 19.089 0.369603 19.4694 0.369603 20.0851C0.369603 20.5116 0.40551 20.6527 0.580875 20.9157C0.697024 21.0899 0.927353 21.316 1.09272 21.418L1.39329 21.6035L7.67383 21.6426L13.9543 21.6817L11.8611 23.7529C10.7098 24.892 9.65552 25.9824 9.51812 26.1758C9.29889 26.4845 9.26826 26.5905 9.26802 27.0413C9.2677 27.6436 9.45906 27.9954 9.97649 28.3442C10.2385 28.5208 10.3776 28.5567 10.8033 28.5578C11.2517 28.559 11.3591 28.5285 11.6695 28.3121C12.0613 28.0391 16.7745 23.3509 17.1568 22.854C17.7215 22.12 18.1278 20.9425 18.1253 20.0473C18.1232 19.3506 17.9315 18.5568 17.6044 17.8909C17.3377 17.3478 17.1194 17.108 14.633 14.6264C13.157 13.1532 11.8194 11.8585 11.6604 11.7493C11.3596 11.5422 10.6817 11.4343 10.3702 11.5438ZM29.6234 11.5685C29.4144 11.6303 28.6601 12.3345 26.5073 14.4774C23.8754 17.0972 23.6454 17.3478 23.3757 17.8909C23.0467 18.5532 22.8547 19.3449 22.8526 20.0473C22.8501 20.9425 23.2564 22.12 23.8211 22.854C24.2034 23.3509 28.9166 28.0391 29.3084 28.3121C29.6188 28.5285 29.7262 28.559 30.1746 28.5578C30.6003 28.5567 30.7394 28.5208 31.0014 28.3442C31.5188 27.9954 31.7102 27.6436 31.7099 27.0413C31.7096 26.5905 31.679 26.4845 31.4598 26.1758C31.3224 25.9824 30.268 24.892 29.1168 23.7529L27.0236 21.6817L33.3099 21.6426L39.5962 21.6035L39.9154 21.3938C40.4068 21.0709 40.6083 20.6889 40.6083 20.0794C40.6083 19.4699 40.4069 19.0879 39.9153 18.765L39.5962 18.5553L33.2283 18.5339L26.8604 18.5126L29.0368 16.3878C30.2339 15.2192 31.3249 14.1033 31.4614 13.9081C31.6782 13.5979 31.7096 13.4882 31.7099 13.0394C31.71 12.62 31.6739 12.4725 31.5132 12.2371C31.1028 11.6359 30.3252 11.3607 29.6234 11.5685ZM1.37053 26.4158C1.01665 26.5233 0.515753 27.0399 0.414566 27.4017C0.360704 27.5941 0.331411 29.1282 0.332041 31.7251C0.333065 36.2242 0.350074 36.41 0.853569 37.4307C1.25194 38.2384 2.11506 39.0951 2.92881 39.4906C3.98471 40.0039 4.15188 40.0177 8.98556 39.993L13.2954 39.9709L13.6146 39.7612C14.106 39.4383 14.3075 39.0563 14.3075 38.4468C14.3075 37.8374 14.1061 37.4554 13.6147 37.1324L13.2956 36.9227L8.91249 36.8836L4.52938 36.8445L4.22126 36.6309C4.0518 36.5134 3.82454 36.2873 3.71626 36.1287L3.5194 35.8402L3.48003 31.6137L3.44066 27.3873L3.25379 27.0889C2.88243 26.496 2.06656 26.2044 1.37053 26.4158ZM38.5838 26.4048C38.2514 26.5113 37.9198 26.7765 37.72 27.0956L37.5372 27.3873L37.4979 31.6137L37.4585 35.8402L37.2616 36.1287C37.1533 36.2873 36.9261 36.5134 36.7566 36.6309L36.4485 36.8445L32.0654 36.8836L27.6823 36.9227L27.3632 37.1324C26.8701 37.4565 26.6704 37.8369 26.6704 38.4525C26.6704 38.879 26.7063 39.0201 26.8817 39.2831C26.9978 39.4573 27.2282 39.6834 27.3935 39.7854L27.6941 39.9709L31.9982 39.993C36.8255 40.0177 36.9933 40.0038 38.0491 39.4906C38.8627 39.0951 39.7259 38.2384 40.1244 37.4307C40.6399 36.3858 40.6556 36.2038 40.6306 31.5418L40.6083 27.3873L40.4214 27.0889C40.1545 26.6628 39.7281 26.4074 39.2191 26.3686C38.987 26.3509 38.7012 26.3672 38.5838 26.4048Z" fill="#7D7D7D"/>
</svg>
