<svg width="6" height="10" viewBox="0 0 6 10" fill="none" xmlns="http://www.w3.org/2000/svg">
<path d="M1.19556 8.87399C1.12521 8.80379 1.0694 8.72039 1.03132 8.62859C0.993235 8.53678 0.973633 8.43837 0.973633 8.33898C0.973633 8.23959 0.993235 8.14118 1.03132 8.04937C1.0694 7.95757 1.12521 7.87417 1.19556 7.80397L4.14003 4.8595L1.19556 1.91503C1.05367 1.77314 0.973954 1.58069 0.973954 1.38002C0.973954 1.17935 1.05367 0.986901 1.19556 0.845007C1.33746 0.703114 1.52991 0.623399 1.73058 0.623399C1.93125 0.623399 2.12369 0.703114 2.26559 0.845007L5.74886 4.32828C5.81921 4.39849 5.87503 4.48188 5.91311 4.57369C5.95119 4.66549 5.97079 4.76391 5.97079 4.86329C5.97079 4.96268 5.95119 5.0611 5.91311 5.1529C5.87503 5.24471 5.81921 5.3281 5.74886 5.39831L2.26559 8.88158C1.97721 9.16996 1.49153 9.16996 1.19556 8.87399Z" fill="#337AB7"/>
</svg>
