<svg width="47" height="42" viewBox="0 0 47 42" fill="none" xmlns="http://www.w3.org/2000/svg">
<path d="M38.3967 27.8307C38.514 28.0234 38.6894 28.1736 38.8951 28.2663C41.5839 29.4788 43.4593 32.2167 43.4593 35.4V40.2C43.4593 41.1941 44.2519 42 45.2297 42C46.2074 42 47 41.1941 47 40.2V35.4C47 29.104 41.9802 24 35.7879 24C35.5291 24 35.4114 24.3328 35.6058 24.5037C36.6934 25.46 37.6363 26.5819 38.3967 27.8307Z" fill="#8A8B9F"/>
<path fill-rule="evenodd" clip-rule="evenodd" d="M11.0323 27.6C6.8634 27.6 3.48387 31.0922 3.48387 35.4V40.2C3.48387 41.1941 2.70398 42 1.74194 42C0.779891 42 0 41.1941 0 40.2V35.4C0 29.104 4.93931 24 11.0323 24H24.9677C31.0607 24 36 29.104 36 35.4V40.2C36 41.1941 35.2201 42 34.2581 42C33.296 42 32.5161 41.1941 32.5161 40.2V35.4C32.5161 31.0922 29.1366 27.6 24.9677 27.6H11.0323Z" fill="#8A8B9F"/>
<path d="M30.4535 15.2913C30.553 15.0676 30.7269 14.8862 30.9383 14.7628C32.6394 13.7707 33.8001 11.7862 33.8001 9.5C33.8001 7.21377 32.6394 5.22934 30.9383 4.23717C30.7269 4.11382 30.553 3.93236 30.4535 3.70867C29.9011 2.46745 29.1768 1.33795 28.3151 0.358813C28.1929 0.220009 28.2819 0 28.4668 0C33.1796 0 37 4.25329 37 9.5C37 14.7467 33.1796 19 28.4668 19C28.2819 19 28.1929 18.78 28.3151 18.6412C29.1768 17.6621 29.9011 16.5326 30.4535 15.2913Z" fill="#8A8B9F"/>
<path fill-rule="evenodd" clip-rule="evenodd" d="M19.5 15.4375C22.7792 15.4375 25.4375 12.7792 25.4375 9.5C25.4375 6.22081 22.7792 3.5625 19.5 3.5625C16.2208 3.5625 13.5625 6.22081 13.5625 9.5C13.5625 12.7792 16.2208 15.4375 19.5 15.4375ZM19.5 19C24.7467 19 29 14.7467 29 9.5C29 4.25329 24.7467 0 19.5 0C14.2533 0 10 4.25329 10 9.5C10 14.7467 14.2533 19 19.5 19Z" fill="#8A8B9F"/>
</svg>
