<svg width="46" height="61" viewBox="0 0 46 61" fill="none" xmlns="http://www.w3.org/2000/svg">
<path fill-rule="evenodd" clip-rule="evenodd" d="M0.9154 0.241602C0.645887 0.385415 0.382154 0.659457 0.237195 0.946486C0.00176941 1.41271 0 1.60478 0 26.9235C0 52.2525 0.00165135 52.434 0.237431 52.901C0.390292 53.2037 0.640815 53.4568 0.940523 53.6112C1.36879 53.8319 1.63241 53.8511 4.24144 53.8511H7.07692V56.7154C7.07692 59.351 7.09591 59.6173 7.31435 60.0499C7.46722 60.3527 7.71774 60.6057 8.01745 60.7602C8.47792 60.9975 8.67548 61 26.5385 61C44.4014 61 44.599 60.9975 45.0595 60.7602C45.3592 60.6057 45.6097 60.3527 45.7626 60.0499C45.9983 59.583 46 59.4013 46 34.132C46 8.86272 45.9983 8.68102 45.7626 8.21407C45.6097 7.91132 45.3592 7.65825 45.0595 7.50383C44.6312 7.28317 44.3676 7.26398 41.7586 7.26398H38.9231V4.34008C38.9231 1.64482 38.9046 1.37947 38.6856 0.946009C38.5328 0.643252 38.2823 0.390181 37.9826 0.235764C37.522 -0.00157981 37.3298 -0.00408194 19.4368 0.0011606C1.6685 0.00640313 1.34874 0.0104542 0.9154 0.241602ZM35.3846 26.9235V50.2766H19.4615H3.53846V26.9235V3.57038H19.4615H35.3846V26.9235ZM7.99232 11.0841C7.49434 11.3497 7.07692 12.0527 7.07692 12.6257C7.07692 13.2169 7.49411 13.9033 8.01745 14.1731C8.46483 14.4036 8.70308 14.4129 14.1538 14.4129C19.6046 14.4129 19.8429 14.4036 20.2902 14.1731C20.8136 13.9033 21.2308 13.2169 21.2308 12.6257C21.2308 12.0345 20.8136 11.348 20.2902 11.0783C19.8423 10.8475 19.6103 10.8387 14.1291 10.8437C8.6914 10.8487 8.4134 10.8596 7.99232 11.0841ZM42.4615 34.132V57.4255H26.5385H10.6154V55.6383V53.8511H24.0663C37.3143 53.8511 37.5241 53.8475 37.9826 53.6112C38.2823 53.4568 38.5328 53.2037 38.6856 52.901C38.921 52.4351 38.9231 52.242 38.9231 31.6346V10.8384H40.6923H42.4615V34.132ZM7.99232 18.233C7.49434 18.4986 7.07692 19.2016 7.07692 19.7746C7.07692 20.3658 7.49411 21.0522 8.01745 21.322C8.47403 21.5573 8.69117 21.5618 19.4615 21.5618C30.2319 21.5618 30.4491 21.5573 30.9056 21.322C31.429 21.0522 31.8462 20.3658 31.8462 19.7746C31.8462 19.1834 31.429 18.497 30.9056 18.2272C30.4487 17.9918 30.2372 17.9875 19.4368 17.9926C8.71441 17.9977 8.42201 18.0039 7.99232 18.233ZM7.99232 25.382C7.49434 25.6475 7.07692 26.3505 7.07692 26.9235C7.07692 27.5147 7.49411 28.2011 8.01745 28.4709C8.47403 28.7062 8.69117 28.7107 19.4615 28.7107C30.2319 28.7107 30.4491 28.7062 30.9056 28.4709C31.429 28.2011 31.8462 27.5147 31.8462 26.9235C31.8462 26.3323 31.429 25.6459 30.9056 25.3761C30.4487 25.1407 30.2372 25.1364 19.4368 25.1415C8.71441 25.1466 8.42201 25.1528 7.99232 25.382ZM7.99232 32.5309C7.49434 32.7965 7.07692 33.4994 7.07692 34.0724C7.07692 34.6636 7.49411 35.35 8.01745 35.6198C8.47403 35.8551 8.69117 35.8596 19.4615 35.8596C30.2319 35.8596 30.4491 35.8551 30.9056 35.6198C31.429 35.35 31.8462 34.6636 31.8462 34.0724C31.8462 33.4812 31.429 32.7948 30.9056 32.525C30.4487 32.2896 30.2372 32.2853 19.4368 32.2904C8.71441 32.2956 8.42201 32.3018 7.99232 32.5309ZM22.1462 39.6798C21.6482 39.9454 21.2308 40.6483 21.2308 41.2213C21.2308 41.8125 21.648 42.499 22.1713 42.7687C22.6101 42.9947 22.8608 43.0086 26.5385 43.0086C30.2161 43.0086 30.4669 42.9947 30.9056 42.7687C31.429 42.499 31.8462 41.8125 31.8462 41.2213C31.8462 40.6301 31.429 39.9437 30.9056 39.674C30.466 39.4474 30.2219 39.4343 26.5137 39.4393C22.8376 39.4444 22.559 39.4596 22.1462 39.6798Z" fill="#8A8B9F"/>
</svg>
