<svg width="433" height="351" viewBox="0 0 433 351" fill="none" xmlns="http://www.w3.org/2000/svg">
<g clip-path="url(#clip0_1684_3060)">
<path d="M432.353 311.405H0.647453V311.621H432.353V311.405Z" fill="#EBEBEB"/>
<path d="M389.096 325.306H360.5V325.522H389.096V325.306Z" fill="#EBEBEB"/>
<path d="M236.548 322.595H225.419V322.811H236.548V322.595Z" fill="#EBEBEB"/>
<path d="M302.556 323.51H279.123V323.726H302.556V323.51Z" fill="#EBEBEB"/>
<path d="M359.636 317.285H311.19V317.501H359.636V317.285Z" fill="#EBEBEB"/>
<path d="M68.8482 327.275H45.942V327.491H68.8482V327.275Z" fill="#EBEBEB"/>
<path d="M96.391 327.275H76.5326V327.491H96.391V327.275Z" fill="#EBEBEB"/>
<path d="M166.258 322.491H113.754V322.707H166.258V322.491Z" fill="#EBEBEB"/>
<path d="M205.284 272.897H38.5684C35.8487 272.897 33.6384 270.687 33.6384 267.967V33.6116C33.6384 30.8919 35.8487 28.6815 38.5684 28.6815H205.293C208.013 28.6815 210.223 30.8919 210.223 33.6116V267.967C210.214 270.687 208.004 272.897 205.284 272.897ZM38.5684 28.8974C35.9696 28.8974 33.8542 31.0128 33.8542 33.6116V267.967C33.8542 270.566 35.9696 272.681 38.5684 272.681H205.293C207.892 272.681 210.007 270.566 210.007 267.967V33.6116C210.007 31.0128 207.892 28.8974 205.293 28.8974H38.5684Z" fill="#EBEBEB"/>
<path d="M403.912 148.886C406.718 139.146 406.209 129.234 403.057 120.358C405.518 116.836 407.46 112.855 408.721 108.495C414.506 88.4468 403.964 67.5695 384.943 60.0492C381.273 33.7843 362.632 10.8349 335.512 3.01237C314.074 -3.16965 292.083 1.47549 275.359 13.71C271.171 9.33253 265.818 5.95659 259.584 4.1607C240.779 -1.26152 221.137 9.58292 215.714 28.388C214.808 31.5308 214.367 34.6995 214.333 37.8251C195.407 41.6413 179.201 55.5854 173.485 75.4179C168.348 93.2301 172.898 111.543 184.01 124.727C182.577 127.326 181.394 130.115 180.539 133.085C174.383 154.437 186.695 176.731 208.047 182.887C215.084 184.916 222.224 184.924 228.855 183.284C236.704 194.102 248.075 202.495 261.907 206.484C279.719 211.621 297.946 208.426 312.451 199.222C318.944 214.323 324.28 236.979 312.796 259.195C354.533 255.102 384.684 215.066 378.536 178.38C390.443 172.897 399.992 162.476 403.912 148.886Z" fill="#F8FBFD"/>
<path d="M323.839 250.906C323.615 250.906 323.39 250.82 323.226 250.656C323.002 250.431 322.915 250.112 323.002 249.801C328.881 229.321 323.52 209.687 317.994 196.822L315.188 190.303L309.196 194.102C300.156 199.844 289.752 202.875 279.123 202.875C273.882 202.875 268.65 202.132 263.565 200.664C251.451 197.167 241.133 189.923 233.725 179.718L231.333 176.42L227.379 177.404C221.577 178.846 215.473 178.734 209.696 177.067C200.924 174.537 193.663 168.744 189.242 160.749C184.83 152.754 183.794 143.524 186.324 134.743C187.032 132.291 188.025 129.899 189.277 127.637L191.288 123.993L188.603 120.816C178.363 108.668 174.866 92.3149 179.261 77.0757C184.183 60.0233 198.066 47.2449 215.498 43.7308L220.29 42.7638L220.342 37.8769C220.368 35.2176 220.757 32.5842 221.491 30.0457C225.125 17.5522 236.738 8.80584 249.741 8.80584C252.487 8.80584 255.233 9.19437 257.901 9.96281C262.882 11.4047 267.407 14.1417 270.981 17.8803L274.642 21.7138L278.916 18.5883C289.734 10.6794 303.005 6.32785 316.302 6.32785C322.207 6.32785 328.104 7.16536 333.837 8.82311C357.797 15.7304 375.506 36.1673 378.959 60.8867L379.443 64.3749L382.724 65.67C399.129 72.1542 407.814 89.8455 402.919 106.82C401.874 110.429 400.26 113.814 398.11 116.896L396.331 119.443L397.367 122.379C400.225 130.417 400.475 139.008 398.11 147.21C394.829 158.573 386.773 167.932 376.006 172.888L371.81 174.822L372.57 179.381C375.195 195.035 370.481 212.13 359.636 226.29C350.605 238.084 337.982 246.814 324.081 250.872C324.003 250.897 323.917 250.906 323.839 250.906ZM315.594 188.179C315.68 188.179 315.766 188.188 315.853 188.214C316.094 188.292 316.293 188.464 316.388 188.697L319.591 196.14C325.1 208.944 330.427 228.337 325.091 248.748C338.051 244.612 349.785 236.306 358.272 225.228C368.823 211.448 373.416 194.836 370.878 179.657L370.006 174.451C369.945 174.063 370.144 173.691 370.498 173.527L375.298 171.317C385.616 166.568 393.326 157.606 396.469 146.727C398.731 138.87 398.49 130.65 395.753 122.949L394.561 119.599C394.466 119.34 394.509 119.046 394.665 118.813L396.702 115.895C398.749 112.968 400.285 109.747 401.27 106.328C405.915 90.2168 397.678 73.4235 382.102 67.2673L378.355 65.7909C378.07 65.6787 377.863 65.4196 377.82 65.1088L377.258 61.1199C373.9 37.0739 356.675 17.1896 333.371 10.4722C327.785 8.86628 322.043 8.05467 316.302 8.05467C303.368 8.05467 290.46 12.294 279.952 19.9784L275.065 23.5529C274.711 23.8119 274.228 23.7687 273.934 23.4493L269.747 19.0718C266.379 15.5491 262.123 12.9761 257.434 11.6206C254.922 10.8953 252.34 10.524 249.75 10.524C237.507 10.524 226.576 18.7523 223.183 30.5379C222.492 32.9295 222.129 35.4075 222.104 37.9028L222.043 43.489C222.034 43.8948 221.75 44.2488 221.352 44.3265L215.87 45.4317C199.068 48.8163 185.694 61.1285 180.953 77.5592C176.723 92.2458 180.081 107.994 189.959 119.702L193.024 123.337C193.257 123.614 193.292 124.002 193.119 124.313L190.814 128.474C189.622 130.624 188.681 132.895 188.007 135.226C185.607 143.558 186.591 152.322 190.779 159.911C194.975 167.501 201.865 173.001 210.197 175.409C215.68 176.99 221.473 177.093 226.982 175.729L231.506 174.606C231.843 174.52 232.205 174.65 232.413 174.935L235.15 178.708C242.325 188.602 252.323 195.622 264.065 199.006C268.995 200.431 274.072 201.148 279.149 201.148C289.45 201.148 299.526 198.204 308.298 192.643L315.145 188.3C315.266 188.231 315.43 188.179 315.594 188.179Z" fill="white"/>
<path d="M263.288 107.459L240.149 103.859L240.511 101.545C241.124 97.6076 242.066 94.482 243.343 92.1595C244.621 89.8455 246.296 87.8079 248.377 86.0465C250.458 84.2938 254.982 81.3323 261.95 77.1793C265.654 75.0121 267.683 72.8104 268.028 70.5828C268.374 68.3466 267.985 66.5076 266.863 65.0657C265.732 63.6238 263.832 62.6913 261.156 62.2768C258.272 61.8279 255.742 62.415 253.558 64.0209C251.373 65.6355 249.646 68.7783 248.377 73.4494L225.203 66.8443C227.37 58.2793 231.61 51.7778 237.938 47.3398C244.267 42.8933 253.109 41.5636 264.48 43.3336C273.33 44.7151 280.185 47.6766 285.055 52.2095C291.668 58.357 294.328 65.5923 293.033 73.907C292.497 77.3606 291.021 80.538 288.612 83.4477C286.203 86.3574 281.696 89.6729 275.091 93.3769C270.48 95.9844 267.493 98.1947 266.112 99.9906C264.721 101.812 263.78 104.29 263.288 107.459ZM238.396 109.885L263.185 113.745L259.783 135.606L234.994 131.747L238.396 109.885Z" fill="#E9F6FF"/>
<path d="M322.345 141.339L309.498 130.935L310.543 129.649C312.313 127.464 313.996 125.884 315.602 124.926C317.2 123.967 318.952 123.32 320.843 122.983C322.734 122.646 326.55 122.448 332.275 122.387C335.305 122.379 337.326 121.757 338.327 120.514C339.329 119.271 339.743 118.01 339.57 116.732C339.398 115.454 338.56 114.211 337.075 113.002C335.478 111.707 333.725 111.163 331.817 111.37C329.909 111.578 327.742 112.881 325.316 115.29L313.513 103.038C317.873 98.5832 322.769 96.1139 328.208 95.6476C333.647 95.1814 339.519 97.504 345.83 102.615C350.743 106.596 353.877 110.835 355.241 115.333C357.098 121.429 356.157 126.791 352.409 131.41C350.855 133.327 348.826 134.743 346.331 135.667C343.827 136.591 339.899 137.014 334.554 136.936C330.816 136.893 328.208 137.178 326.723 137.791C325.229 138.395 323.77 139.578 322.345 141.339ZM306.295 133.992L320.057 145.138L310.223 157.278L296.46 146.131L306.295 133.992Z" fill="#E9F6FF"/>
<path d="M325.937 66.5507L320.377 58.9527L321.137 58.4001C322.432 57.4504 323.589 56.8287 324.608 56.5352C325.626 56.2416 326.68 56.138 327.776 56.2243C328.864 56.3193 330.997 56.7596 334.157 57.554C335.823 57.9857 337.023 57.9425 337.757 57.3986C338.491 56.8633 338.897 56.2243 338.992 55.4991C339.078 54.7652 338.802 53.9622 338.163 53.0815C337.472 52.1318 336.583 51.5792 335.504 51.4238C334.425 51.2597 333.043 51.6655 331.359 52.6325L326.637 44.1798C329.684 42.358 332.732 41.7104 335.797 42.2457C338.863 42.781 341.755 44.905 344.483 48.6349C346.607 51.536 347.721 54.3248 347.816 57.0014C347.954 60.6277 346.659 63.4424 343.922 65.4369C342.791 66.2658 341.47 66.7493 339.959 66.8961C338.448 67.0429 336.229 66.7061 333.294 65.8859C331.239 65.3247 329.762 65.1002 328.856 65.2211C327.949 65.3419 326.982 65.7823 325.937 66.5507ZM318.167 60.1701L324.124 68.3034L316.949 73.553L310.992 65.4196L318.167 60.1701Z" fill="#E9F6FF"/>
<path d="M111.458 174.278C104.317 174.278 97.1335 172.327 90.7702 168.528C82.0066 163.304 75.8159 155.214 73.7179 146.261C66.6034 145.751 60.0501 142.255 55.6812 136.625C52.5125 132.55 50.708 127.697 50.4403 122.552C48.5667 121.274 46.909 119.72 45.5102 117.932C38.6979 109.169 39.5527 96.865 47.4529 89.1462C44.1633 75.1071 49.3524 60.386 60.7408 51.536C69.6771 44.5942 81.0568 42.1507 92.0567 44.8014C93.3345 41.8831 95.329 39.3274 97.8502 37.3674C101.9 34.216 106.942 32.8345 112.036 33.4735C117.13 34.1124 121.672 36.694 124.814 40.752C125.764 41.9781 126.559 43.3077 127.197 44.7237C137.584 43.0228 147.988 47.0808 154.455 55.4127C160.24 62.8553 161.984 72.6119 159.152 81.6C160.283 82.567 161.311 83.6376 162.209 84.7946C169.556 94.2489 167.847 107.925 158.384 115.273C155.5 117.518 152.081 118.994 148.472 119.573C146.59 126.618 142.558 132.705 136.781 137.186C129.494 142.85 120.161 145.216 111.06 143.731C110.965 152.115 112.917 163.486 122.302 171.619C122.492 171.783 122.57 172.034 122.518 172.275C122.466 172.517 122.285 172.716 122.043 172.785C118.607 173.778 115.032 174.27 111.458 174.278ZM83.3017 45.1122C75.5051 45.1122 67.8985 47.6852 61.561 52.6066C50.4921 61.2148 45.5016 75.582 48.8516 89.2066C48.9121 89.4397 48.8344 89.6901 48.6617 89.8628C41.0119 97.0809 40.1139 108.789 46.5722 117.103C47.9451 118.873 49.5942 120.393 51.4591 121.619C51.6405 121.74 51.7527 121.938 51.7613 122.163C51.9513 127.145 53.6781 131.859 56.7346 135.805C60.9739 141.262 67.3718 144.594 74.2877 144.948C74.5899 144.966 74.8489 145.181 74.918 145.484C76.8261 154.265 82.8527 162.242 91.4609 167.371C100.337 172.655 110.844 174.253 120.497 171.809C111.233 163.14 109.506 151.381 109.731 142.911C109.739 142.712 109.826 142.522 109.981 142.401C110.136 142.28 110.335 142.229 110.534 142.263C119.504 143.947 128.769 141.711 135.961 136.124C141.608 131.73 145.528 125.746 147.28 118.804C147.349 118.537 147.574 118.338 147.842 118.295C151.373 117.811 154.732 116.395 157.555 114.202C166.422 107.312 168.028 94.4907 161.138 85.6234C160.206 84.4233 159.126 83.3181 157.935 82.3425C157.719 82.1612 157.633 81.8676 157.719 81.6086C160.603 72.9313 158.98 63.4511 153.376 56.2416C147.108 48.1773 136.963 44.3093 126.895 46.1483C126.576 46.2088 126.265 46.0361 126.144 45.7425C125.531 44.2488 124.719 42.8501 123.735 41.5809C120.808 37.8164 116.586 35.4075 111.855 34.8204C107.123 34.2246 102.435 35.5111 98.6704 38.4381C96.1838 40.3721 94.2411 42.9364 93.0669 45.8548C92.9374 46.1742 92.592 46.3383 92.2725 46.2606C89.2938 45.4921 86.2805 45.1122 83.3017 45.1122Z" fill="#E6E6E6"/>
<path d="M87.4979 102.08L75.5742 104.886L75.2893 103.695C74.8144 101.666 74.6503 99.9647 74.8144 98.5919C74.9784 97.2191 75.3929 95.898 76.0577 94.6375C76.7225 93.3769 78.3371 91.0543 80.8928 87.6697C82.2656 85.8911 82.8096 84.4233 82.5419 83.275C82.2742 82.1266 81.7217 81.3064 80.8928 80.8315C80.0639 80.3567 78.9588 80.2789 77.5773 80.5984C76.0922 80.9524 74.9784 81.7295 74.2359 82.9383C73.4934 84.147 73.2775 86.012 73.5797 88.5245L61.0516 89.8887C60.4127 85.3126 61.1898 81.3237 63.3828 77.9305C65.5759 74.5286 69.5994 72.1456 75.4619 70.7642C80.0208 69.6935 83.932 69.7799 87.1784 71.0232C91.5904 72.6982 94.3016 75.6856 95.3117 79.9681C95.7348 81.7467 95.6398 83.5772 95.0527 85.4594C94.457 87.3416 92.9287 89.8369 90.4507 92.9365C88.7326 95.1123 87.7137 96.7701 87.4029 97.9098C87.0834 99.0581 87.118 100.448 87.4979 102.08ZM75.9109 108.15L88.6808 105.145L91.3314 116.413L78.5616 119.417L75.9109 108.15Z" fill="#EBEBEB"/>
<path d="M117.855 76.8944L109.575 74.3818L109.826 73.553C110.257 72.1456 110.758 71.0491 111.345 70.272C111.932 69.4863 112.649 68.8301 113.504 68.2948C114.359 67.7595 116.163 66.9133 118.926 65.7564C120.394 65.152 121.249 64.4526 121.49 63.6583C121.732 62.864 121.689 62.1646 121.352 61.5775C121.015 60.9904 120.368 60.55 119.41 60.2565C118.382 59.9456 117.424 60.0233 116.543 60.4982C115.662 60.9731 114.868 62.0351 114.16 63.6756L106.027 60.0579C107.261 57.0359 109.152 54.8774 111.691 53.5823C114.238 52.2872 117.536 52.2526 121.603 53.4873C124.771 54.4457 127.12 55.8876 128.665 57.8044C130.763 60.3946 131.359 63.1748 130.461 66.1535C130.09 67.3882 129.382 68.4761 128.354 69.4172C127.327 70.3584 125.505 71.334 122.898 72.3528C121.076 73.0695 119.867 73.717 119.271 74.3041C118.676 74.8999 118.201 75.7633 117.855 76.8944ZM108.634 76.4886L117.501 79.1824L115.127 87.0049L106.26 84.3111L108.634 76.4886Z" fill="#EBEBEB"/>
<path d="M216.5 350.397C308.956 350.397 383.907 346.021 383.907 340.623C383.907 335.225 308.956 330.849 216.5 330.849C124.044 330.849 49.0934 335.225 49.0934 340.623C49.0934 346.021 124.044 350.397 216.5 350.397Z" fill="#F5F5F5"/>
<path d="M136.73 194.879L135.935 194.543C136.652 192.859 137.058 191.452 137.187 190.26L138.042 190.355C137.912 191.633 137.481 193.109 136.73 194.879ZM136.393 184.993C134.718 181.315 131.601 178.993 127.387 178.285L127.534 177.43C132.05 178.19 135.383 180.685 137.179 184.639L136.393 184.993Z" fill="#656E77"/>
<path d="M131.186 200.474C131.034 202.236 130.566 204.158 128.957 204.891L124.22 207.048C123.752 207.261 123.199 207.055 122.984 206.587V206.587C122.328 205.145 121.957 203.893 121.87 202.84C121.784 201.787 121.905 200.742 122.207 199.706C122.518 198.67 123.373 196.693 124.789 193.783C125.548 192.246 125.738 191.072 125.367 190.252C124.996 189.431 124.46 188.905 123.77 188.671C123.079 188.438 122.242 188.542 121.257 188.991C120.195 189.474 119.487 190.226 119.107 191.236V191.236C118.285 193.492 117.575 196.097 115.284 196.818L114.78 196.976C112.285 197.761 109.481 196.406 109.429 193.79C109.396 192.165 109.678 190.604 110.275 189.103C111.406 186.237 114.065 183.854 118.235 181.954C121.482 180.478 124.417 179.96 127.033 180.409C130.582 181.004 133.051 182.835 134.441 185.891C135.02 187.161 135.227 188.542 135.063 190.036C134.899 191.529 134.122 193.619 132.732 196.304C131.774 198.186 131.256 199.568 131.186 200.474V200.474ZM125.941 213.835C124.933 211.62 125.91 209.007 128.125 207.999L129.205 207.507C131.42 206.498 134.033 207.476 135.042 209.691V209.691C136.05 211.906 135.072 214.519 132.858 215.528L131.778 216.02C129.563 217.028 126.95 216.05 125.941 213.835V213.835Z" fill="url(#paint0_linear_1684_3060)"/>
<path d="M109.187 220.894C109.777 222.157 110.18 223.671 109.353 224.793L106.96 228.035C106.721 228.359 106.265 228.428 105.94 228.19V228.19C104.939 227.456 104.214 226.748 103.756 226.057C103.298 225.375 102.979 224.615 102.798 223.786C102.616 222.957 102.452 221.282 102.305 218.77C102.236 217.432 101.925 216.56 101.356 216.145C100.786 215.731 100.225 215.575 99.6633 215.67C99.1021 215.774 98.5754 216.162 98.0747 216.845C97.5393 217.578 97.3321 218.356 97.4616 219.193V219.193C97.7477 221.043 98.2663 223.085 96.9799 224.444L96.6853 224.756C95.2804 226.241 92.8518 226.382 91.8202 224.617C91.1793 223.521 90.7775 222.349 90.6148 221.101C90.2953 218.718 91.2019 216.085 93.3259 213.201C94.975 210.956 96.7795 209.488 98.7309 208.798C101.373 207.856 103.756 208.167 105.863 209.721C106.735 210.369 107.399 211.232 107.857 212.312C108.315 213.391 108.582 215.118 108.651 217.466C108.712 219.115 108.885 220.255 109.187 220.894V220.894ZM110.714 232.018C109.184 230.891 108.857 228.736 109.984 227.206L110.53 226.464C111.657 224.933 113.813 224.606 115.344 225.734V225.734C116.874 226.862 117.201 229.016 116.074 230.547L115.528 231.288C114.401 232.819 112.245 233.146 110.714 232.018V232.018Z" fill="url(#paint1_linear_1684_3060)"/>
<path d="M202.763 337.515C201.364 337.515 200.009 336.755 199.318 335.425C195.847 328.725 191.487 320.86 183.647 312.346C182.732 311.353 182.395 309.946 182.775 308.651C185.685 298.54 190.261 284.717 190.304 284.579C190.978 282.55 193.171 281.445 195.2 282.118C197.229 282.792 198.334 284.985 197.66 287.014C197.617 287.143 193.68 299.05 190.822 308.737C198.032 316.914 202.478 324.676 206.208 331.868C207.192 333.768 206.45 336.107 204.55 337.083C203.972 337.377 203.359 337.515 202.763 337.515Z" fill="#656E77"/>
<path d="M209.213 340.623H179.175L195.096 331.592L208.436 332.11L209.213 340.623Z" fill="#263238"/>
<path d="M206.335 304.26C220.008 299.987 228.22 287.336 224.678 276.003C221.137 264.67 207.181 258.946 193.509 263.219C179.836 267.492 171.623 280.143 175.165 291.477C178.707 302.81 192.662 308.533 206.335 304.26Z" fill="#263238"/>
<path d="M131.584 269.599C130.064 269.599 128.622 268.701 128 267.207C127.18 265.23 128.121 262.968 130.099 262.148C132.352 261.215 132.663 258.919 132.663 258.893C132.827 257.166 134.122 255.75 135.832 255.439C136.755 255.275 137.645 255.007 138.681 254.714C143.93 253.177 150.423 251.277 170.895 257.01C191.081 245.717 191.314 224.546 191.314 223.631C191.314 221.498 193.041 219.754 195.174 219.754C195.174 219.754 195.182 219.754 195.191 219.754C197.315 219.754 199.05 221.464 199.059 223.596C199.068 224.719 198.938 251.295 173.122 264.608C172.242 265.066 171.223 265.161 170.273 264.885C150.769 259.247 145.269 260.853 140.857 262.148C140.468 262.26 140.071 262.381 139.665 262.493C138.707 264.954 136.721 267.794 133.069 269.305C132.585 269.504 132.084 269.599 131.584 269.599Z" fill="#263238"/>
<path d="M176.852 241.892C169.505 212.692 149.931 137.368 212.658 132.766C268.935 128.639 284.381 203.539 288.128 229.493C290.313 244.62 291.055 258.331 291.176 269.055C291.34 282.878 281.627 294.802 268.071 297.556C237.412 303.781 208.393 304.671 188.854 296.96C183.57 294.871 180.375 289.492 180.884 283.837C181.644 275.436 181.661 261.008 176.852 241.892Z" fill="#656E77"/>
<path opacity="0.1" d="M288.129 229.485C284.589 205.033 270.67 137.065 221.939 132.817C216.267 132.325 210.672 135.114 208.064 140.174C205.889 144.387 205.958 149.49 209.213 154.541C219.954 171.196 245.571 228.76 241.703 260.127C239.942 274.399 230.988 285.796 238.776 301.839C248.179 301.062 258.039 299.602 268.08 297.556C281.636 294.81 291.349 282.887 291.185 269.055C291.055 258.331 290.322 244.612 288.129 229.485Z" fill="black"/>
<path d="M279.736 269.435C279.52 269.435 279.348 269.262 279.348 269.055C279.192 255.715 278.165 242.419 276.3 229.545C266.975 165.092 241.867 132.489 203.687 135.304C203.48 135.33 203.29 135.157 203.273 134.95C203.255 134.734 203.419 134.553 203.627 134.536C242.264 131.686 267.666 164.513 277.06 229.442C278.925 242.35 279.952 255.681 280.116 269.055C280.125 269.262 279.952 269.435 279.736 269.435Z" fill="#263238"/>
<path d="M279.14 306.33C292.812 302.057 301.025 289.405 297.483 278.072C293.941 266.739 279.986 261.015 266.313 265.288C252.641 269.561 244.428 282.213 247.97 293.546C251.512 304.879 265.467 310.603 279.14 306.33Z" fill="#263238"/>
<path d="M281.515 337.515C280.116 337.515 278.761 336.755 278.07 335.425C274.599 328.725 270.239 320.86 262.399 312.346C261.484 311.353 261.147 309.946 261.527 308.651C264.437 298.54 269.013 284.717 269.056 284.579C269.729 282.55 271.914 281.445 273.951 282.118C275.98 282.792 277.086 284.985 276.412 287.014C276.369 287.143 272.432 299.05 269.574 308.737C276.783 316.914 281.23 324.676 284.96 331.868C285.944 333.768 285.202 336.107 283.302 337.083C282.715 337.377 282.111 337.515 281.515 337.515Z" fill="#656E77"/>
<path d="M273.381 219.461C271.991 219.461 270.644 218.71 269.945 217.388C268.952 215.498 269.677 213.158 271.568 212.165C272.311 211.768 289.173 202.555 293.913 180.417C282.672 175.712 262.468 165.1 258.047 159.765C257.616 159.246 257.331 158.625 257.218 157.969C257.115 157.39 256.39 152.805 258.082 148.471L256.044 144.534C255.06 142.634 255.802 140.295 257.702 139.31C259.601 138.326 261.941 139.069 262.926 140.968L265.861 146.632C266.491 147.841 266.431 149.3 265.714 150.457C264.791 151.951 264.67 154.135 264.747 155.56C269.721 160.058 289.821 170.704 299.655 174.356C301.382 174.995 302.418 176.765 302.133 178.578C297.756 206.872 276.11 218.528 275.186 219.012C274.599 219.314 273.986 219.461 273.381 219.461Z" fill="#263238"/>
<path d="M261.026 159.229C260.663 159.229 260.292 159.126 259.964 158.91C259.066 158.323 258.816 157.122 259.403 156.233C259.532 156.026 262.736 151.199 267.605 149.896C268.633 149.619 269.703 150.232 269.98 151.269C270.256 152.305 269.643 153.367 268.607 153.643C265.205 154.558 262.667 158.323 262.641 158.357C262.278 158.918 261.656 159.229 261.026 159.229Z" fill="#263238"/>
<path d="M287.964 340.623H257.926L273.848 331.592L287.187 332.11L287.964 340.623Z" fill="#263238"/>
<path d="M225.063 224.937C236.425 223.931 244.901 214.825 243.996 204.598C243.09 194.372 233.146 186.897 221.784 187.903C210.422 188.909 201.946 198.015 202.851 208.242C203.757 218.468 213.701 225.943 225.063 224.937Z" fill="white"/>
<path d="M221.2 218.178C224.213 217.32 225.389 212.178 223.826 206.693C222.264 201.209 218.555 197.458 215.542 198.317C212.529 199.175 211.353 204.317 212.916 209.802C214.478 215.286 218.188 219.037 221.2 218.178Z" fill="#263238"/>
<path d="M199.923 209.92C212.96 208.245 238.785 200.88 243.041 197.91C239.683 188.102 224.081 179.709 210.119 184.432C197.531 188.697 199.923 209.92 199.923 209.92Z" fill="#263238"/>
<path d="M202.452 216.223C218.633 213.149 239.674 207.986 245.692 204.67C245.321 215.23 242.256 225.928 225.73 229.537C212.235 232.498 202.452 216.223 202.452 216.223Z" fill="#263238"/>
<path d="M189.123 226.37C194.977 222.497 195.749 213.351 190.847 205.942C185.945 198.533 177.225 195.667 171.371 199.54C165.517 203.413 164.746 212.559 169.648 219.968C174.55 227.377 183.269 230.244 189.123 226.37Z" fill="white"/>
<path d="M180.53 213.218C181.515 217.846 180.668 221.706 178.639 221.835C176.61 221.973 174.167 218.33 173.191 213.702C172.207 209.074 173.053 205.214 175.082 205.085C177.103 204.955 179.546 208.59 180.53 213.218Z" fill="#263238"/>
<path d="M164.48 211.448C173.226 212.484 190.598 211.327 193.481 209.747C191.349 201.372 181.005 191.901 171.603 193.109C163.124 194.215 164.48 211.448 164.48 211.448Z" fill="#263238"/>
<path d="M166.103 216.896C176.973 217.389 191.116 217.112 195.182 215.584C194.811 223.881 192.635 231.79 181.532 231.661C172.457 231.557 166.103 216.896 166.103 216.896Z" fill="#263238"/>
<path d="M228.665 179.217C212.356 179.217 201.52 171.162 200.985 170.756C199.284 169.461 198.947 167.034 200.242 165.325C201.528 163.624 203.955 163.287 205.656 164.574C205.846 164.712 218.719 174.106 236.6 170.713C238.707 170.315 240.727 171.697 241.124 173.795C241.522 175.893 240.14 177.922 238.042 178.319C234.753 178.949 231.618 179.217 228.665 179.217Z" fill="#263238"/>
<path d="M159.411 172.543C158.98 172.543 158.531 172.474 158.099 172.318C156.087 171.593 155.042 169.374 155.768 167.362C157.823 161.647 161.224 157.934 165.887 156.337C174.34 153.427 183.44 159.082 183.82 159.324C185.624 160.464 186.168 162.855 185.029 164.669C183.889 166.473 181.506 167.017 179.693 165.877C177.931 164.781 172.466 162.242 168.382 163.667C166.034 164.487 164.29 166.551 163.055 169.979C162.485 171.559 161 172.543 159.411 172.543Z" fill="#263238"/>
<path d="M189.933 237.886C189.829 237.886 189.717 237.869 189.613 237.843C189 237.661 188.646 237.04 188.819 236.427C188.845 236.323 189.579 233.811 192.756 232.17C197.203 229.882 203.972 230.357 212.882 233.577C213.487 233.793 213.798 234.467 213.582 235.063C213.366 235.667 212.701 235.978 212.097 235.762C201.882 232.058 196.572 232.861 193.922 234.182C191.608 235.339 191.081 236.988 191.055 237.057C190.9 237.558 190.434 237.886 189.933 237.886Z" fill="#263238"/>
<path d="M153.367 233.629C130.832 235.65 114.695 244.983 114.695 244.983C121.369 243.723 145.225 273.242 151.356 296.002C162.666 291.806 175.859 288.948 189.933 286.72C181.411 263.261 165.826 236.677 153.367 233.629Z" fill="#656E77"/>
<path opacity="0.6" d="M153.367 233.629C130.832 235.65 114.695 244.983 114.695 244.983C121.369 243.723 145.225 273.242 151.356 296.002C162.666 291.806 175.859 288.948 189.933 286.72C181.411 263.261 165.826 236.677 153.367 233.629Z" fill="white"/>
<path d="M153.367 233.629C138.62 231.963 114.678 244.31 114.678 244.31C110.439 247.012 111.587 252.089 113.901 254.23C116.12 251.044 140.865 242.755 150.173 241.642C145.545 237.359 149.845 234.251 153.367 233.629Z" fill="#656E77"/>
<path opacity="0.2" d="M153.367 233.629C138.62 231.963 114.678 244.31 114.678 244.31C110.439 247.012 111.587 252.089 113.901 254.23C116.12 251.044 140.865 242.755 150.173 241.642C145.545 237.359 149.845 234.251 153.367 233.629Z" fill="white"/>
<path d="M131.592 269.599C130.323 269.599 129.088 268.977 128.346 267.838C125.54 263.538 127.292 256.967 127.672 255.698C128.285 253.652 130.444 252.486 132.49 253.099C134.536 253.712 135.702 255.862 135.098 257.908C134.467 260.075 134.338 262.847 134.839 263.607C136.004 265.394 135.503 267.794 133.708 268.969C133.051 269.4 132.318 269.599 131.592 269.599Z" fill="#263238"/>
</g>
<defs>
<linearGradient id="paint0_linear_1684_3060" x1="136.868" y1="214.168" x2="106.517" y2="211.327" gradientUnits="userSpaceOnUse">
<stop stop-color="#69B5E5"/>
<stop offset="1" stop-color="#ABCF6B"/>
</linearGradient>
<linearGradient id="paint1_linear_1684_3060" x1="118.114" y1="231.538" x2="87.93" y2="227.401" gradientUnits="userSpaceOnUse">
<stop stop-color="#69B5E5"/>
<stop offset="1" stop-color="#ABCF6B"/>
</linearGradient>
<clipPath id="clip0_1684_3060">
<rect width="431.705" height="350.113" fill="white" transform="translate(0.647461 0.283997)"/>
</clipPath>
</defs>
</svg>
