<svg width="6" height="10" viewBox="0 0 6 10" fill="none" xmlns="http://www.w3.org/2000/svg">
<path d="M5.18505 8.87399C5.2554 8.80379 5.31122 8.72039 5.3493 8.62859C5.38738 8.53678 5.40698 8.43837 5.40698 8.33898C5.40698 8.23959 5.38738 8.14118 5.3493 8.04937C5.31122 7.95757 5.2554 7.87417 5.18505 7.80397L2.24059 4.8595L5.18505 1.91503C5.32695 1.77314 5.40666 1.58069 5.40666 1.38002C5.40666 1.17935 5.32695 0.986901 5.18505 0.845007C5.04316 0.703114 4.85071 0.623399 4.65004 0.623399C4.44937 0.623399 4.25692 0.703114 4.11503 0.845007L0.631752 4.32828C0.561401 4.39849 0.505587 4.48188 0.467505 4.57369C0.429423 4.66549 0.409822 4.76391 0.409822 4.86329C0.409822 4.96268 0.429423 5.0611 0.467505 5.1529C0.505587 5.24471 0.561401 5.3281 0.631752 5.39831L4.11503 8.88158C4.4034 9.16996 4.88909 9.16996 5.18505 8.87399Z" fill="#337AB7"/>
</svg>
