<svg width="26" height="26" viewBox="0 0 26 26" fill="none" xmlns="http://www.w3.org/2000/svg">
<g clip-path="url(#clip0_1493_224)">
<path d="M25.5023 12.9078C25.5023 12.0586 25.4334 11.2049 25.2865 10.3695H13.5039V15.1798H20.2513C19.9713 16.7313 19.0716 18.1037 17.7543 18.9758V22.097H21.7797C24.1436 19.9213 25.5023 16.7083 25.5023 12.9078Z" fill="#4285F4"/>
<path d="M13.5039 25.1126C16.873 25.1126 19.7142 24.0064 21.7843 22.097L17.7589 18.9758C16.6389 19.7377 15.193 20.1692 13.5085 20.1692C10.2496 20.1692 7.48637 17.9706 6.49492 15.0146H2.34094V18.2322C4.46154 22.4504 8.78076 25.1126 13.5039 25.1126Z" fill="#34A853"/>
<path d="M6.49041 15.0146C5.96714 13.4631 5.96714 11.7832 6.49041 10.2317V7.01413H2.34102C0.569269 10.5439 0.569269 14.7024 2.34102 18.2322L6.49041 15.0146Z" fill="#FBBC04"/>
<path d="M13.5039 5.07255C15.2848 5.04501 17.0061 5.71515 18.2959 6.94528L21.8623 3.37883C19.604 1.25823 16.6068 0.0923641 13.5039 0.129084C8.78076 0.129084 4.46154 2.7913 2.34094 7.01413L6.49033 10.2317C7.47719 7.27117 10.245 5.07255 13.5039 5.07255Z" fill="#EA4335"/>
</g>
<defs>
<clipPath id="clip0_1493_224">
<rect width="24.9835" height="24.9835" fill="white" transform="translate(0.762329 0.128242)"/>
</clipPath>
</defs>
</svg>
