<svg
  width="20"
  height="15"
  viewBox="0 0 20 15"
  fill="none"
  xmlns="http://www.w3.org/2000/svg"
>
<path
    fill-rule="evenodd"
    clip-rule="evenodd"
    d="M3.12023 0.0915203C2.93585 0.193821 2.34147 0.867499 1.94182 1.42706C0.276663 3.75875 -0.348792 6.62421 0.186841 9.46768C0.532471 11.3025 1.30882 12.895 2.57911 14.3745C3.09845 14.9795 3.40809 15.1166 3.78694 14.9094C4.03399 14.7743 4.17261 14.5272 4.17261 14.2218C4.17261 13.9368 4.19252 13.9692 3.58006 13.2576C2.33651 11.8128 1.58262 9.94927 1.48266 8.07288C1.35431 5.66454 2.07508 3.48799 3.58006 1.73945C4.2002 1.01893 4.17578 1.05963 4.17578 0.747241C4.17578 0.439681 4.09489 0.283792 3.8414 0.102585C3.65609 -0.0298626 3.34751 -0.0345979 3.12023 0.0915203ZM16.2256 0.132638C16.037 0.253411 15.9028 0.443479 15.8678 0.639314C15.8157 0.931026 15.9181 1.14969 16.3111 1.58604C16.9309 2.27407 17.4166 3.01695 17.7858 3.84159C19.2322 7.07237 18.6458 10.8303 16.2886 13.4346C15.7794 13.9972 15.7054 14.2566 15.9391 14.6601C16.0396 14.8337 16.3235 15 16.5194 15C16.7627 15 16.9357 14.8811 17.3512 14.4285C18.8218 12.8268 19.7429 10.7105 19.9562 8.44298C20.224 5.59731 19.2511 2.63915 17.3756 0.595946C17.1634 0.364808 16.9353 0.146046 16.8686 0.109805C16.6974 0.016834 16.3893 0.0277579 16.2256 0.132638ZM12.8813 2.31397C12.6328 2.43047 12.4891 2.64023 12.4672 2.91863C12.4419 3.23782 12.4884 3.33041 12.9403 3.86081C14.4914 5.68127 14.7138 8.25596 13.5019 10.3612C13.387 10.5609 13.1149 10.9321 12.8974 11.186C12.477 11.6768 12.4252 11.7944 12.4712 12.1546C12.4903 12.3042 12.5381 12.3918 12.6727 12.5236C13.0319 12.8755 13.3954 12.8165 13.8416 12.3338C15.1535 10.9145 15.8543 8.85308 15.6812 6.92305C15.5383 5.33105 14.9664 3.97113 13.9272 2.75219C13.5265 2.28213 13.2217 2.15442 12.8813 2.31397ZM6.49385 2.3609C6.41836 2.3954 6.22063 2.5813 6.05447 2.77395C5.20995 3.75321 4.6832 4.83853 4.41235 6.15747C4.27235 6.83945 4.27235 8.15764 4.41235 8.83962C4.68271 10.1562 5.21017 11.2442 6.0505 12.2185C6.3672 12.5858 6.60818 12.7496 6.83171 12.7496C7.15002 12.7496 7.4707 12.4788 7.52726 12.1622C7.58168 11.8573 7.51516 11.687 7.20172 11.3286C6.79238 10.8608 6.55278 10.5035 6.29952 9.98354C5.28218 7.895 5.61853 5.49486 7.18145 3.68931C7.48012 3.34429 7.52391 3.23664 7.49083 2.92885C7.43779 2.43469 6.9456 2.15428 6.49385 2.3609ZM9.55555 6.0736C8.54406 6.4596 8.2487 7.76954 8.99621 8.55456C9.29112 8.86428 9.55523 8.97399 10.0018 8.97235C10.3233 8.97113 10.416 8.95195 10.6092 8.84679C10.9455 8.6638 11.0857 8.5216 11.2543 8.19248C11.3923 7.92322 11.4057 7.86181 11.4061 7.49855C11.4065 7.02961 11.3015 6.7515 11.0073 6.44253C10.6405 6.05733 10.0149 5.89835 9.55555 6.0736Z"
    fill="#7D7D7D"
  />
</svg>
