<svg width="25" height="25" viewBox="0 0 25 25" fill="none" xmlns="http://www.w3.org/2000/svg">
<path fill-rule="evenodd" clip-rule="evenodd" d="M12.1465 0.0899292C12.035 0.14889 11.9258 0.261243 11.8658 0.378921C11.7758 0.555364 11.7676 0.665861 11.7676 1.69892C11.7676 2.73248 11.7758 2.84239 11.8659 3.01912C11.9764 3.23587 12.2577 3.40865 12.5 3.40865C12.7423 3.40865 13.0236 3.23587 13.1341 3.01912C13.2242 2.84239 13.2324 2.73248 13.2324 1.69892C13.2324 0.665373 13.2242 0.555462 13.1341 0.378726C12.954 0.0253994 12.5129 -0.103563 12.1465 0.0899292ZM3.92822 3.52623C3.56719 3.68352 3.39575 4.0878 3.53521 4.45304C3.65488 4.76651 5.07227 6.15813 5.35962 6.24425C5.75303 6.36217 6.20103 6.08871 6.27686 5.68439C6.33892 5.35324 6.2335 5.18842 5.45024 4.39213C4.55264 3.47958 4.32822 3.35188 3.92822 3.52623ZM20.4834 3.55055C20.1958 3.6845 18.829 5.08803 18.7515 5.32915C18.5758 5.87539 19.0925 6.40716 19.6411 6.24478C19.9266 6.16027 21.3457 4.76509 21.4656 4.45099C21.6062 4.08281 21.4295 3.6782 21.061 3.52413C20.8489 3.43547 20.7177 3.44147 20.4834 3.55055ZM11.499 5.46251C9.19756 5.81887 7.21538 7.24947 6.18896 9.29498C5.90483 9.86124 5.69175 10.4688 5.55835 11.0932C5.41333 11.772 5.40264 13.0293 5.53589 13.7403C6.08496 16.6704 8.36978 18.9357 11.3037 19.4589C11.9582 19.5756 13.0413 19.5756 13.6963 19.459C16.6351 18.9358 18.9139 16.6763 19.4641 13.7403C19.5974 13.0293 19.5867 11.772 19.4417 11.0932C18.85 8.32444 16.7982 6.21718 14.0679 5.57438C13.6415 5.47399 13.3943 5.44927 12.6709 5.43477C12.1875 5.42509 11.6602 5.43755 11.499 5.46251ZM13.8755 7.03873C14.8944 7.30569 15.7917 7.82764 16.5061 8.56908C17.0022 9.084 17.2642 9.45774 17.5551 10.0658C18.2688 11.5576 18.2966 13.1997 17.634 14.7373C16.9017 16.4367 15.2968 17.6889 13.4277 18.0193C12.9646 18.1011 12.049 18.1004 11.5723 18.0179C9.65049 17.6853 8.03252 16.3857 7.29893 14.5853C6.70947 13.139 6.76367 11.4895 7.44751 10.0604C7.75386 9.42018 8.08955 8.95645 8.60938 8.45545C9.44014 7.65482 10.2547 7.22367 11.4148 6.97063C12.0427 6.83366 13.2169 6.86615 13.8755 7.03873ZM0.378955 11.8626C0.172803 11.9715 0 12.2597 0 12.4946C0 12.737 0.172705 13.0184 0.389355 13.129C0.566016 13.2191 0.675879 13.2273 1.70898 13.2273C2.74209 13.2273 2.85195 13.2191 3.02861 13.129C3.24526 13.0184 3.41797 12.737 3.41797 12.4946C3.41797 12.2522 3.24526 11.9708 3.02861 11.8602C2.85142 11.7698 2.74458 11.7621 1.69873 11.764C0.663184 11.766 0.545215 11.7748 0.378955 11.8626ZM21.961 11.8626C21.7548 11.9715 21.582 12.2597 21.582 12.4946C21.582 12.737 21.7547 13.0184 21.9714 13.129C22.148 13.2191 22.2579 13.2273 23.291 13.2273C24.3241 13.2273 24.434 13.2191 24.6106 13.129C24.8273 13.0184 25 12.737 25 12.4946C25 12.2522 24.8273 11.9708 24.6106 11.8602C24.4334 11.7698 24.3266 11.7621 23.2808 11.764C22.2452 11.766 22.1272 11.7748 21.961 11.8626ZM5.24902 18.7911C4.99546 18.9085 3.53525 20.3862 3.48848 20.5727C3.46992 20.6467 3.46606 20.8074 3.47988 20.9301C3.52764 21.3538 3.96919 21.6246 4.42559 21.51C4.63823 21.4566 6.13096 19.9546 6.23047 19.6939C6.37178 19.3237 6.196 18.9195 5.82661 18.7651C5.61475 18.6765 5.48354 18.6824 5.24902 18.7911ZM19.1626 18.7672C18.8016 18.9245 18.6301 19.3288 18.7695 19.6939C18.869 19.9546 20.3618 21.4566 20.5744 21.51C21.0308 21.6246 21.4724 21.3538 21.5201 20.9301C21.5339 20.8074 21.5301 20.6467 21.5115 20.5727C21.4911 20.4914 21.176 20.1316 20.7121 19.66C19.7856 18.7182 19.5657 18.5915 19.1626 18.7672ZM12.1465 21.6813C12.035 21.7402 11.9258 21.8526 11.8658 21.9703C11.7758 22.1467 11.7676 22.2572 11.7676 23.2903C11.7676 24.3238 11.7758 24.4337 11.8659 24.6105C11.9764 24.8272 12.2577 25 12.5 25C12.7423 25 13.0236 24.8272 13.1341 24.6105C13.2242 24.4337 13.2324 24.3238 13.2324 23.2903C13.2324 22.2567 13.2242 22.1468 13.1341 21.9701C12.954 21.6168 12.5129 21.4878 12.1465 21.6813Z" fill="black"/>
</svg>
