<svg width="72" height="72" viewBox="0 0 72 72" fill="none" xmlns="http://www.w3.org/2000/svg">
<g filter="url(#filter0_d_1783_4410)">
<path fill-rule="evenodd" clip-rule="evenodd" d="M35.4618 26.0142C34.3022 26.1277 33.2305 26.5549 32.2909 27.2781C31.8333 27.6303 31.239 28.2922 30.8956 28.8321C30.7473 29.0653 30.4586 29.6562 30.3552 29.9381C30.2396 30.2535 30.1163 30.7353 30.0557 31.1092C29.9814 31.5669 29.9814 32.4357 30.0557 32.8934C30.1606 33.5403 30.3266 34.0633 30.6108 34.6423C30.9213 35.2748 31.2441 35.7232 31.7611 36.2399C32.2781 36.7566 32.7267 37.0792 33.3596 37.3895C33.939 37.6735 34.4622 37.8395 35.1096 37.9444C35.5675 38.0185 36.4368 38.0185 36.8947 37.9444C37.542 37.8395 38.0653 37.6735 38.6446 37.3895C39.2776 37.0792 39.7262 36.7566 40.2432 36.2399C40.7602 35.7232 41.083 35.2748 41.3935 34.6423C41.5997 34.2221 41.7034 33.9468 41.8145 33.5245C41.9625 32.9622 42 32.6539 42 32.0013C42 31.3487 41.9625 31.0404 41.8145 30.4781C41.7034 30.0558 41.5997 29.7805 41.3935 29.3603C41.083 28.7277 40.7602 28.2794 40.2432 27.7627C39.7262 27.246 39.2776 26.9233 38.6446 26.613C38.0659 26.3293 37.5322 26.16 36.9065 26.0616C36.5612 26.0073 35.7902 25.982 35.4618 26.0142ZM39.1483 29.4243C39.2658 29.4603 39.4451 29.6379 39.4946 29.7674C39.5521 29.9175 39.5463 30.1124 39.4805 30.2483C39.4065 30.4009 35.54 34.2366 35.3647 34.3312C35.1969 34.4218 34.9988 34.4218 34.8307 34.3312C34.7312 34.2776 32.9502 32.6834 32.6474 32.3769C32.5292 32.2572 32.4704 32.1111 32.4725 31.9426C32.4772 31.5873 32.7364 31.3477 33.0888 31.3728C33.1734 31.3789 33.2764 31.4013 33.3178 31.4227C33.3803 31.455 34.5677 32.5219 34.9513 32.8904L35.0633 32.9979L36.8187 31.246C37.7842 30.2825 38.6082 29.4771 38.6498 29.4564C38.8125 29.375 38.9573 29.3656 39.1483 29.4243Z" fill="url(#paint0_linear_1783_4410)"/>
</g>
<defs>
<filter id="filter0_d_1783_4410" x="0" y="0" width="72" height="72" filterUnits="userSpaceOnUse" color-interpolation-filters="sRGB">
<feFlood flood-opacity="0" result="BackgroundImageFix"/>
<feColorMatrix in="SourceAlpha" type="matrix" values="0 0 0 0 0 0 0 0 0 0 0 0 0 0 0 0 0 0 127 0" result="hardAlpha"/>
<feOffset dy="4"/>
<feGaussianBlur stdDeviation="15"/>
<feComposite in2="hardAlpha" operator="out"/>
<feColorMatrix type="matrix" values="0 0 0 0 0 0 0 0 0 0 0 0 0 0 0 0 0 0 0.1 0"/>
<feBlend mode="normal" in2="BackgroundImageFix" result="effect1_dropShadow_1783_4410"/>
<feBlend mode="normal" in="SourceGraphic" in2="effect1_dropShadow_1783_4410" result="shape"/>
</filter>
<linearGradient id="paint0_linear_1783_4410" x1="42" y1="36.8261" x2="28.8281" y2="35.1367" gradientUnits="userSpaceOnUse">
<stop stop-color="#69B5E5"/>
<stop offset="1" stop-color="#ABCF6B"/>
</linearGradient>
</defs>
</svg>
