<svg width="13" height="12" viewBox="0 0 13 12" fill="none" xmlns="http://www.w3.org/2000/svg">
<path d="M12.9091 11.492L10.7565 9.43094C11.6994 8.42852 12.279 7.10684 12.279 5.65474C12.2789 2.53675 9.62949 0 6.37289 0C3.11629 0 0.466797 2.53675 0.466797 5.65477C0.466797 8.7728 3.11629 11.3095 6.37289 11.3095C7.88952 11.3095 9.26991 10.7547 10.3169 9.85181L12.4695 11.9128C12.5302 11.9709 12.6098 12 12.6893 12C12.7688 12 12.8483 11.9709 12.9091 11.9128C13.0305 11.7965 13.0305 11.6082 12.9091 11.492ZM6.37289 10.7143C3.45931 10.7143 1.08851 8.44464 1.08851 5.65477C1.08851 2.8649 3.45931 0.595229 6.37289 0.595229C9.28646 0.595229 11.6573 2.86487 11.6573 5.65477C11.6573 8.44467 9.28646 10.7143 6.37289 10.7143Z" fill="#ACACAC"/>
</svg>
