<svg width="34" height="23" viewBox="0 0 34 23" fill="none" xmlns="http://www.w3.org/2000/svg">
<path fill-rule="evenodd" clip-rule="evenodd" d="M16.0367 0.0714416C14.0766 0.474265 12.5582 1.93513 12.004 3.95152C11.8108 4.65444 11.7977 5.98142 11.9773 6.66028C12.5113 8.67853 14.0346 10.1834 15.9613 10.596C16.7284 10.7603 17.2716 10.7603 18.0387 10.596C19.9617 10.1841 21.4897 8.67461 22.0227 6.66028C22.2036 5.97653 22.1893 4.65479 21.9932 3.94104C21.4882 2.10217 20.1354 0.692118 18.3832 0.1783C17.7508 -0.00715166 16.6609 -0.0567889 16.0367 0.0714416ZM6.07205 6.17887C4.05201 6.59679 2.71807 8.65916 3.13944 10.7127C3.29542 11.4728 3.60605 12.0638 4.14534 12.6264C4.8907 13.404 5.71013 13.7612 6.74859 13.7612C7.95113 13.7612 8.98832 13.228 9.69787 12.2449C10.1619 11.602 10.3661 10.995 10.4056 10.1418C10.4608 8.94706 10.144 8.09295 9.32918 7.23994C8.47879 6.34964 7.2233 5.94068 6.07205 6.17887ZM26.6658 6.17887C24.7112 6.58321 23.38 8.56223 23.7074 10.5767C23.951 12.0757 25.1149 13.3485 26.5573 13.6936C27.0941 13.822 28.0926 13.7479 28.6352 13.5395C29.7469 13.1124 30.6161 12.1115 30.9269 10.9005C31.045 10.4403 31.0405 9.4717 30.9181 8.98381C30.6666 7.98182 29.8838 6.96907 29.0241 6.5335C28.3041 6.16866 27.3837 6.0303 26.6658 6.17887ZM15.8859 12.3157C14.293 12.5243 12.7601 13.1412 11.4198 14.1134C10.7433 14.604 9.60719 15.7997 9.10829 16.5463C8.12451 18.0181 7.53766 19.777 7.40034 21.6648C7.34766 22.3891 7.43429 22.6816 7.76073 22.8817C7.9391 22.9911 8.59146 22.9993 17 22.9993C27.0878 22.9993 26.3059 23.0379 26.5389 22.5282C26.6604 22.2628 26.6332 21.5854 26.4584 20.5175C25.875 16.9531 23.3511 13.9109 20.0295 12.7682C18.8084 12.3481 17.0804 12.1594 15.8859 12.3157ZM5.37452 15.4456C2.40013 16.0929 0.228619 18.6518 0.0159721 21.7603C-0.01638 22.2333 -0.0026287 22.3933 0.0853928 22.57C0.299169 22.999 0.301627 22.9993 3.31894 22.9993C5.89654 22.9993 6.05033 22.9924 6.00595 22.8787C5.9075 22.6266 5.89202 21.8839 5.96915 21.1079C6.15057 19.2815 6.73038 17.5595 7.66873 16.0601C8.00606 15.5211 8.01463 15.4958 7.87672 15.4505C7.58037 15.3529 5.81602 15.3496 5.37452 15.4456ZM26.5329 15.3769C26.4964 15.3921 26.3557 15.4237 26.2204 15.4472L25.9744 15.4898L26.3424 16.0758C27.0226 17.1586 27.5995 18.6208 27.8556 19.9111C28.0842 21.0624 28.1508 22.4837 27.9946 22.8787C27.9497 22.9924 28.1033 22.9993 30.6811 22.9993C33.6984 22.9993 33.7008 22.999 33.9146 22.57C34.0026 22.3933 34.0164 22.2333 33.984 21.7603C33.8122 19.2494 32.3417 17.0387 30.1281 15.9638C29.251 15.5378 28.6677 15.4039 27.5626 15.3747C27.0328 15.3607 26.5694 15.3617 26.5329 15.3769Z" fill="black"/>
</svg>
