<svg width="88" height="85" viewBox="0 0 88 85" fill="none" xmlns="http://www.w3.org/2000/svg">
<path d="M45.8827 79.042C65.5786 79.042 81.8919 63.6113 81.8919 44.1567C81.8919 24.7021 65.5786 9.27137 45.8827 9.27137C26.1869 9.27137 9.87354 24.7021 9.87354 44.1567C9.87354 63.6113 26.1869 79.042 45.8827 79.042Z" stroke="url(#paint0_linear_18_226)" stroke-width="10.7673"/>
<path d="M45.8827 78.094C65.287 78.094 81.0773 62.9323 81.0773 44.1567C81.0773 25.3812 65.287 10.2195 45.8827 10.2195C26.4784 10.2195 10.6881 25.3812 10.6881 44.1567C10.6881 62.9323 26.4784 78.094 45.8827 78.094Z" stroke="#FCFCFC" stroke-width="1.86453"/>
<circle cx="57.9644" cy="12.9692" r="9.83866" fill="url(#paint1_linear_18_226)" stroke="#FBFBFB" stroke-width="5.06697"/>
<circle cx="57.8129" cy="13.1082" r="3.77461" stroke="#FBFBFB" stroke-width="0.932266"/>
<circle cx="13.0095" cy="48.5354" r="9.83866" fill="url(#paint2_linear_18_226)" stroke="#FBFBFB" stroke-width="5.06697"/>
<circle cx="62.6367" cy="71.6947" r="9.83866" fill="url(#paint3_linear_18_226)" stroke="#FBFBFB" stroke-width="5.06697"/>
<path d="M64.6455 57.2244C61.7929 60.9493 57.8167 63.7343 53.26 65.1989C48.7034 66.6635 43.7887 66.7362 39.1876 65.407C34.5865 64.0778 30.5235 61.4117 27.5537 57.7729C24.584 54.1341 22.8524 49.7002 22.5957 45.0772C22.339 40.4541 23.5696 35.8674 26.1194 31.9438C28.6692 28.0203 32.4137 24.9514 36.8414 23.1564C41.269 21.3615 46.1636 20.9281 50.8564 21.9155C55.5492 22.9029 59.8112 25.2629 63.06 28.673L56.245 34.7047C54.2851 32.6475 51.7141 31.2238 48.8831 30.6281C46.0522 30.0325 43.0995 30.2939 40.4285 31.3767C37.7575 32.4596 35.4986 34.3109 33.9604 36.6778C32.4223 39.0447 31.6799 41.8116 31.8348 44.6005C31.9896 47.3894 33.0342 50.0642 34.8257 52.2593C36.6172 54.4544 39.0683 56.0627 41.8439 56.8646C44.6195 57.6664 47.5843 57.6225 50.3331 56.739C53.0819 55.8555 55.4806 54.1754 57.2014 51.9284L64.6455 57.2244Z" fill="url(#paint4_linear_18_226)"/>
<path d="M62.2044 55.0092C59.7763 58.1617 56.3916 60.5189 52.5129 61.7584C48.6342 62.998 44.4507 63.0595 40.5341 61.9345C36.6175 60.8096 33.159 58.5531 30.631 55.4735C28.1031 52.3938 26.6292 48.6412 26.4106 44.7284C26.1921 40.8157 27.2396 36.9337 29.4101 33.613C31.5805 30.2924 34.768 27.695 38.5369 26.1758C42.3058 24.6567 46.4722 24.2899 50.4669 25.1256C54.4615 25.9613 58.0894 27.9587 60.8548 30.8448L59.7381 31.8275C57.1839 29.1618 53.833 27.317 50.1435 26.5451C46.454 25.7733 42.6057 26.112 39.1247 27.5152C35.6437 28.9183 32.6997 31.3173 30.695 34.3843C28.6903 37.4514 27.7228 41.0369 27.9246 44.6508C28.1265 48.2647 29.4878 51.7307 31.8227 54.5751C34.1575 57.4196 37.3519 59.5037 40.9694 60.5427C44.5868 61.5817 48.4508 61.5249 52.0333 60.38C55.6157 59.2352 58.7419 57.0581 60.9846 54.1463L62.2044 55.0092Z" fill="#FBFBFB"/>
<rect x="54.7089" y="18.5886" width="2.80968" height="4.64483" transform="rotate(15.4838 54.7089 18.5886)" fill="#EE9934"/>
<rect x="55.7166" y="64.052" width="2.80968" height="4.64483" transform="rotate(-35.5207 55.7166 64.052)" fill="#F8C637"/>
<rect x="19.1908" y="49.4951" width="2.80968" height="4.64483" transform="rotate(-90 19.1908 49.4951)" fill="#F4B436"/>
<circle cx="62.7755" cy="71.8336" r="3.77461" stroke="#FBFBFB" stroke-width="0.932266"/>
<circle cx="13.1484" cy="48.6743" r="3.77461" stroke="#FBFBFB" stroke-width="0.932266"/>
<defs>
<linearGradient id="paint0_linear_18_226" x1="45.8827" y1="14.655" x2="45.8827" y2="73.6584" gradientUnits="userSpaceOnUse">
<stop stop-color="#68B4E5"/>
<stop offset="1" stop-color="#AACE6A"/>
</linearGradient>
<linearGradient id="paint1_linear_18_226" x1="57.4024" y1="17.1838" x2="59.0882" y2="5.66406" gradientUnits="userSpaceOnUse">
<stop stop-color="#EE9934"/>
<stop offset="1" stop-color="#F9C837"/>
</linearGradient>
<linearGradient id="paint2_linear_18_226" x1="6.26622" y1="49.6593" x2="18.6288" y2="48.5354" gradientUnits="userSpaceOnUse">
<stop stop-color="#EE9934"/>
<stop offset="1" stop-color="#F4B436"/>
</linearGradient>
<linearGradient id="paint3_linear_18_226" x1="67.1321" y1="77.0331" x2="60.3889" y2="67.1992" gradientUnits="userSpaceOnUse">
<stop stop-color="#EE9934"/>
<stop offset="1" stop-color="#F9C837"/>
</linearGradient>
<linearGradient id="paint4_linear_18_226" x1="45.8827" y1="21.3983" x2="45.8827" y2="66.3532" gradientUnits="userSpaceOnUse">
<stop stop-color="#ED9333"/>
<stop offset="1" stop-color="#F9CB37"/>
</linearGradient>
</defs>
</svg>
